<?xml version="1.0" encoding="UTF-8"?><svg id="a" xmlns="http://www.w3.org/2000/svg" viewBox="0 0 2591.1 1863.73"><defs><style>.b{font-size:52px;letter-spacing:.03em;}.b,.c,.d{fill:#fff;}.b,.d{font-family:Pristina-Regular, Pristina;}.e{font-family:BritannicBold, Britannic Bold;font-size:52.93px;}.e,.f,.g{fill:#000045;}.h{fill:#3689ce;}.i{fill:#006837;}.j{letter-spacing:.04em;}.k{fill:none;stroke:red;stroke-width:1.25px;}.d{font-size:142.82px;letter-spacing:.03em;}.f{font-family:MyriadPro-Bold, Myriad Pro;font-size:40px;}.l{letter-spacing:.03em;}.m{font-family:MyriadPro-Regular, Myriad Pro;font-size:12px;}.n{letter-spacing:0em;}.o{letter-spacing:-.02em;}.p{fill:red;}</style></defs><path class="g" d="M1851.33,88.2c48.26-7.07,87.81-29.01,118.36-67.21-3.19-2.47-5.79-4.49-9.14-7.09,11.28-4.6,21.96-8.95,33.67-13.72-1.59,12.05-3.07,23.28-4.62,35.12l-8.54-5.95c-37,37.56-81.93,58.08-135.68,59.65,2-.24,3.99-.5,5.97-.79"/><path class="h" d="M1877.97,95.88c-4.01,.48-8.72,.92-12.49,1.22-4.65,.37-9.25,.68-13.47,.71v25.36h25.96v-27.28c-.08,.01,.08,0,0,0Z"/><path class="h" d="M1898.75,92.38c-3.55,.65-7.56,1.27-11.17,1.77-1.3,.2-2.25,.35-3.41,.55v28.47h25.96v-33.1c-3.81,.84-7.55,1.63-11.37,2.32Z"/><path class="h" d="M1944.27,76.91c-8.15,3.25-16.44,6.7-25.29,8.99v37.26h25.96v-46.56c-.21,.11-.42,.22-.67,.32Z"/><path class="h" d="M1952.51,70.91v52.32h25.96V55.67c-4.22,2.94-6.3,4.33-10.28,6.6"/><g><path class="g" d="M1829.2,192.24v-26.96h6.04v11.92h.08c.4-.69,1.03-1.68,1.88-2.96l6.08-8.96h7.52l-8.92,11.48,9.36,15.48h-7.08l-6.64-11.64-2.28,2.84v8.8h-6.04Z"/><path class="g" d="M1854.76,165.28h6.08v15.48c0,2.32,.42,4.07,1.26,5.26,.84,1.19,2.05,1.78,3.62,1.78,3.31,0,4.96-2.35,4.96-7.04v-15.48h6.08v15.12c0,4.08-.97,7.15-2.92,9.2-1.95,2.05-4.72,3.08-8.32,3.08-7.17,0-10.76-4.12-10.76-12.36v-15.04Z"/><path class="g" d="M1883.04,192.24v-26.6c2.29-.37,5-.56,8.12-.56,4.03,0,6.93,.71,8.72,2.12,1.68,1.31,2.52,3.2,2.52,5.68,0,1.6-.47,2.99-1.42,4.16-.95,1.17-2.06,1.99-3.34,2.44v.12c1.68,.67,2.88,2.33,3.6,5,.16,.59,.41,1.56,.76,2.92,.35,1.36,.63,2.41,.84,3.14,.21,.73,.4,1.26,.56,1.58h-6.24c-.51-.99-1.12-3.08-1.84-6.28-.37-1.65-.88-2.78-1.52-3.38-.64-.6-1.61-.91-2.92-.94h-1.8v10.6h-6.04Zm6.04-22.4v7.4h2.4c1.52,0,2.71-.35,3.56-1.04,.85-.69,1.28-1.64,1.28-2.84s-.39-2.12-1.18-2.76c-.79-.64-1.89-.96-3.3-.96s-2.28,.07-2.76,.2Z"/><path class="g" d="M1906.72,190.96l1.24-5c2.13,1.12,4.39,1.68,6.76,1.68,1.39,0,2.45-.26,3.18-.78s1.1-1.23,1.1-2.14c0-.83-.34-1.52-1.02-2.08-.68-.56-1.85-1.12-3.5-1.68-4.96-1.76-7.44-4.43-7.44-8,0-2.35,.93-4.28,2.78-5.8,1.85-1.52,4.33-2.28,7.42-2.28,2.67,0,4.96,.45,6.88,1.36l-1.36,4.88c-1.71-.85-3.57-1.28-5.6-1.28-1.25,0-2.22,.25-2.9,.76-.68,.51-1.02,1.12-1.02,1.84,0,.8,.36,1.45,1.08,1.96,.72,.51,2.03,1.12,3.92,1.84,2.4,.88,4.16,1.97,5.28,3.26,1.12,1.29,1.68,2.89,1.68,4.78,0,2.4-.93,4.39-2.78,5.98-1.85,1.59-4.54,2.38-8.06,2.38-1.47,0-2.9-.17-4.3-.5s-2.51-.73-3.34-1.18Z"/><path class="g" d="M1980.46,192.68c-1.01,0-1.85-.35-2.52-1.04-.67-.69-1-1.57-1-2.64s.33-1.99,1-2.68c.67-.69,1.53-1.04,2.6-1.04s1.89,.34,2.54,1.02c.65,.68,.99,1.58,1.02,2.7,0,1.07-.33,1.95-1,2.64-.67,.69-1.55,1.04-2.64,1.04Z"/><path class="g" d="M1988.98,192.24v-26.96h6.04v11.92h.08c.4-.69,1.03-1.68,1.88-2.96l6.08-8.96h7.52l-8.92,11.48,9.36,15.48h-7.08l-6.64-11.64-2.28,2.84v8.8h-6.04Z"/><path class="g" d="M2013.54,192.24v-3.28l12.84-18.48v-.16h-11.68v-5.04h19.56v3.52l-12.56,18.24v.16h12.76v5.04h-20.92Z"/></g><path class="c" d="M1490.11,88.02c48.26-7.07,87.81-29.01,118.36-67.21-3.19-2.47-5.79-4.49-9.14-7.09,11.28-4.6,21.96-8.95,33.67-13.72-1.59,12.05-3.07,23.28-4.62,35.12l-8.54-5.95c-37,37.56-81.93,58.08-135.68,59.65,2-.24,3.99-.5,5.97-.79"/><path class="h" d="M1516.75,95.69c-4.01,.48-8.72,.92-12.49,1.22-4.65,.37-9.25,.68-13.47,.71v25.36h25.96v-27.28c-.08,.01,.08,0,0,0Z"/><path class="h" d="M1537.53,92.2c-3.55,.65-7.56,1.27-11.17,1.77-1.3,.2-2.25,.35-3.41,.55v28.47h25.96v-33.1c-3.81,.84-7.55,1.63-11.37,2.32Z"/><path class="h" d="M1583.04,76.73c-8.15,3.25-16.44,6.7-25.29,8.99v37.26h25.96v-46.56c-.21,.11-.42,.22-.67,.32Z"/><path class="h" d="M1591.29,70.72v52.32h25.96V55.49c-4.22,2.94-6.3,4.33-10.28,6.6"/><g><path class="c" d="M1424.98,147.74h6.04v11.92h.08c.6-1.04,1.24-2,1.88-2.96l6.08-8.96h7.52l-8.92,11.48,9.36,15.48h-7.08l-6.64-11.64-2.28,2.84v8.8h-6.04v-26.96Z"/><path class="c" d="M1456.62,147.74v15.48c0,4.68,1.8,7.04,4.88,7.04s4.96-2.24,4.96-7.04v-15.48h6.08v15.12c0,8.32-4.2,12.28-11.24,12.28s-10.76-3.8-10.76-12.36v-15.04h6.08Z"/><path class="c" d="M1478.82,148.1c1.96-.32,4.84-.56,8.12-.56,4,0,6.8,.6,8.72,2.12,1.64,1.28,2.52,3.2,2.52,5.68,0,3.4-2.44,5.76-4.76,6.6v.12c1.88,.76,2.92,2.52,3.6,5,.84,3.08,1.64,6.6,2.16,7.64h-6.24c-.4-.8-1.08-2.96-1.84-6.28-.76-3.4-1.92-4.28-4.44-4.32h-1.8v10.6h-6.04v-26.6Zm6.04,11.6h2.4c3.04,0,4.84-1.52,4.84-3.88s-1.68-3.72-4.48-3.72c-1.48,0-2.32,.08-2.76,.2v7.4Z"/><path class="c" d="M1503.74,168.42c1.6,.84,4.16,1.68,6.76,1.68,2.8,0,4.28-1.16,4.28-2.92s-1.28-2.64-4.52-3.76c-4.48-1.6-7.44-4.08-7.44-8,0-4.6,3.88-8.08,10.2-8.08,3.08,0,5.28,.6,6.88,1.36l-1.36,4.88c-1.04-.52-3-1.28-5.6-1.28s-3.92,1.24-3.92,2.6c0,1.72,1.48,2.48,5,3.8,4.76,1.76,6.96,4.24,6.96,8.04,0,4.52-3.44,8.36-10.84,8.36-3.08,0-6.12-.84-7.64-1.68l1.24-5Z"/><path class="c" d="M1535.66,162.18v4.04h-10.48v-4.04h10.48Z"/><path class="c" d="M1565.65,160.94c0,8.88-5.32,14.2-13.24,14.2s-12.68-6.04-12.68-13.76,5.2-14.12,13.12-14.12,12.8,6.2,12.8,13.68Zm-19.48,.32c0,5.32,2.48,9.04,6.56,9.04s6.48-3.92,6.48-9.16c0-4.88-2.28-9.04-6.48-9.04s-6.56,3.92-6.56,9.16Z"/><path class="c" d="M1570.66,174.7v-26.96h7.12l5.6,9.88c1.6,2.84,3.16,6.2,4.4,9.24h.08c-.36-3.56-.48-7.2-.48-11.28v-7.84h5.6v26.96h-6.4l-5.76-10.4c-1.6-2.88-3.4-6.36-4.68-9.52h-.16c.2,3.6,.28,7.4,.28,11.8v8.12h-5.6Z"/><path class="c" d="M1599.3,147.74h6.08v21.84h10.72v5.12h-16.8v-26.96Z"/><path class="c" d="M1626.81,147.74v26.96h-6.08v-26.96h6.08Z"/><path class="c" d="M1633.1,174.7v-26.96h7.12l5.6,9.88c1.6,2.84,3.16,6.2,4.4,9.24h.08c-.36-3.56-.48-7.2-.48-11.28v-7.84h5.6v26.96h-6.4l-5.76-10.4c-1.6-2.88-3.4-6.36-4.68-9.52h-.16c.2,3.6,.28,7.4,.28,11.8v8.12h-5.6Z"/><path class="c" d="M1677.73,163.3h-9.92v6.4h11.08v5h-17.16v-26.96h16.6v5h-10.52v5.6h9.92v4.96Z"/></g><path class="g" d="M1198.28,89.26c48.26-7.07,87.81-29.01,118.36-67.21-3.19-2.47-5.79-4.49-9.14-7.09,11.28-4.6,21.96-8.95,33.67-13.72-1.59,12.05-3.07,23.28-4.62,35.12l-8.54-5.95c-37,37.56-81.93,58.08-135.68,59.65,2-.24,3.99-.5,5.97-.79"/><path class="h" d="M1224.92,96.94c-4.01,.48-8.72,.92-12.49,1.22-4.65,.37-9.25,.68-13.47,.71v25.36h25.96v-27.28c-.08,.01,.08,0,0,0Z"/><path class="h" d="M1245.7,93.44c-3.55,.65-7.56,1.27-11.17,1.77-1.3,.2-2.25,.35-3.41,.55v28.47h25.96v-33.1c-3.81,.84-7.55,1.63-11.37,2.32Z"/><path class="h" d="M1291.21,77.98c-8.15,3.25-16.44,6.7-25.29,8.99v37.26h25.96v-46.56c-.21,.11-.42,.22-.67,.32Z"/><path class="h" d="M1299.46,71.97v52.32h25.96V56.73c-4.22,2.94-6.3,4.33-10.28,6.6"/><path class="g" d="M1243.98,390.85c48.26-7.07,87.81-29.01,118.36-67.21-3.19-2.47-5.79-4.49-9.14-7.09,11.28-4.6,21.96-8.95,33.67-13.72-1.59,12.05-3.07,23.28-4.62,35.12l-8.54-5.95c-37,37.56-81.93,58.08-135.68,59.65,2-.24,3.99-.5,5.97-.79"/><path class="h" d="M1270.62,398.53c-4.01,.48-8.72,.92-12.49,1.22-4.65,.37-9.25,.68-13.47,.71v25.36h25.96v-27.28c-.08,.01,.08,0,0,0Z"/><path class="h" d="M1291.4,395.03c-3.55,.65-7.56,1.27-11.17,1.77-1.3,.2-2.25,.35-3.41,.55v28.47h25.96v-33.1c-3.81,.84-7.55,1.63-11.37,2.32Z"/><path class="h" d="M1336.91,379.57c-8.15,3.25-16.44,6.7-25.29,8.99v37.26h25.96v-46.56c-.21,.11-.42,.22-.67,.32Z"/><path class="h" d="M1345.16,373.56v52.32h25.96v-67.55c-4.22,2.94-6.3,4.33-10.28,6.6"/><g><path class="g" d="M1133.15,148.99h6.04v11.92h.08c.6-1.04,1.24-2,1.88-2.96l6.08-8.96h7.52l-8.92,11.48,9.36,15.48h-7.08l-6.64-11.64-2.28,2.84v8.8h-6.04v-26.96Z"/><path class="g" d="M1164.79,148.99v15.48c0,4.68,1.8,7.04,4.88,7.04s4.96-2.24,4.96-7.04v-15.48h6.08v15.12c0,8.32-4.2,12.28-11.24,12.28s-10.76-3.8-10.76-12.36v-15.04h6.08Z"/><path class="g" d="M1186.99,149.34c1.96-.32,4.84-.56,8.12-.56,4,0,6.8,.6,8.72,2.12,1.64,1.28,2.52,3.2,2.52,5.68,0,3.4-2.44,5.76-4.76,6.6v.12c1.88,.76,2.92,2.52,3.6,5,.84,3.08,1.64,6.6,2.16,7.64h-6.24c-.4-.8-1.08-2.96-1.84-6.28-.76-3.4-1.92-4.28-4.44-4.32h-1.8v10.6h-6.04v-26.6Zm6.04,11.6h2.4c3.04,0,4.84-1.52,4.84-3.88s-1.68-3.72-4.48-3.72c-1.48,0-2.32,.08-2.76,.2v7.4Z"/><path class="g" d="M1211.91,169.66c1.6,.84,4.16,1.68,6.76,1.68,2.8,0,4.28-1.16,4.28-2.92s-1.28-2.64-4.52-3.76c-4.48-1.6-7.44-4.08-7.44-8,0-4.6,3.88-8.08,10.2-8.08,3.08,0,5.28,.6,6.88,1.36l-1.36,4.88c-1.04-.52-3-1.28-5.6-1.28s-3.92,1.24-3.92,2.6c0,1.72,1.48,2.48,5,3.8,4.76,1.76,6.96,4.24,6.96,8.04,0,4.52-3.44,8.36-10.84,8.36-3.08,0-6.12-.84-7.64-1.68l1.24-5Z"/><path class="g" d="M1243.83,163.42v4.04h-10.48v-4.04h10.48Z"/><path class="g" d="M1273.82,162.18c0,8.88-5.32,14.2-13.24,14.2s-12.68-6.04-12.68-13.76,5.2-14.12,13.12-14.12,12.8,6.2,12.8,13.68Zm-19.48,.32c0,5.32,2.48,9.04,6.56,9.04s6.48-3.92,6.48-9.16c0-4.88-2.28-9.04-6.48-9.04s-6.56,3.92-6.56,9.16Z"/><path class="g" d="M1278.83,175.94v-26.96h7.12l5.6,9.88c1.6,2.84,3.16,6.2,4.4,9.24h.08c-.36-3.56-.48-7.2-.48-11.28v-7.84h5.6v26.96h-6.4l-5.76-10.4c-1.6-2.88-3.4-6.36-4.68-9.52h-.16c.2,3.6,.28,7.4,.28,11.8v8.12h-5.6Z"/><path class="g" d="M1307.47,148.99h6.08v21.84h10.72v5.12h-16.8v-26.96Z"/><path class="g" d="M1334.99,148.99v26.96h-6.08v-26.96h6.08Z"/><path class="g" d="M1341.27,175.94v-26.96h7.12l5.6,9.88c1.6,2.84,3.16,6.2,4.4,9.24h.08c-.36-3.56-.48-7.2-.48-11.28v-7.84h5.6v26.96h-6.4l-5.76-10.4c-1.6-2.88-3.4-6.36-4.68-9.52h-.16c.2,3.6,.28,7.4,.28,11.8v8.12h-5.6Z"/><path class="g" d="M1385.9,164.54h-9.92v6.4h11.08v5h-17.16v-26.96h16.6v5h-10.52v5.6h9.92v4.96Z"/></g><path class="g" d="M5.97,362.96c48.26-7.07,87.81-29.01,118.36-67.21-3.19-2.47-5.79-4.49-9.14-7.09,11.28-4.6,21.96-8.95,33.67-13.72-1.59,12.05-3.07,23.28-4.62,35.12l-8.54-5.95c-37,37.56-81.93,58.08-135.68,59.65,2-.24,3.99-.5,5.97-.79"/><path class="h" d="M32.61,370.63c-4.01,.48-8.72,.92-12.49,1.22-4.65,.37-9.25,.68-13.47,.71v25.36h25.96v-27.28c-.08,.01,.08,0,0,0Z"/><path class="h" d="M53.39,367.14c-3.55,.65-7.56,1.27-11.17,1.77-1.3,.2-2.25,.35-3.41,.55v28.47h25.96v-33.1c-3.81,.84-7.55,1.63-11.37,2.32Z"/><path class="h" d="M98.9,351.67c-8.15,3.25-16.44,6.7-25.29,8.99v37.26h25.96v-46.56c-.21,.11-.42,.22-.67,.32Z"/><path class="h" d="M107.14,345.66v52.32h25.96v-67.55c-4.22,2.94-6.3,4.33-10.28,6.6"/><g><path class="g" d="M1433.95,302.83h27.22v53.72h.36c2.71-4.69,5.59-9.01,8.47-13.34l27.4-40.38h33.89l-40.2,51.74,42.19,69.77h-31.91l-29.93-52.46-10.27,12.8v39.66h-27.22v-121.51Z"/><path class="g" d="M1576.57,302.83v69.77c0,21.09,8.11,31.73,21.99,31.73s22.35-10.09,22.35-31.73v-69.77h27.4v68.15c0,37.5-18.93,55.35-50.66,55.35s-48.5-17.13-48.5-55.71v-67.79h27.4Z"/><path class="g" d="M1676.65,304.46c8.83-1.44,21.81-2.52,36.6-2.52,18.03,0,30.65,2.7,39.3,9.56,7.39,5.77,11.36,14.42,11.36,25.6,0,15.32-11,25.96-21.45,29.75v.54c8.47,3.42,13.16,11.36,16.22,22.54,3.79,13.88,7.39,29.75,9.74,34.43h-28.12c-1.8-3.61-4.87-13.34-8.29-28.3-3.42-15.32-8.65-19.29-20.01-19.47h-8.11v47.78h-27.22v-119.89Zm27.22,52.28h10.82c13.7,0,21.82-6.85,21.82-17.49s-7.57-16.77-20.19-16.77c-6.67,0-10.46,.36-12.44,.9v33.35Z"/><path class="g" d="M1788.98,396.04c7.21,3.79,18.75,7.57,30.47,7.57,12.62,0,19.29-5.23,19.29-13.16s-5.77-11.9-20.37-16.95c-20.19-7.21-33.53-18.39-33.53-36.06,0-20.73,17.49-36.42,45.97-36.42,13.88,0,23.8,2.71,31.01,6.13l-6.13,22c-4.69-2.34-13.52-5.77-25.24-5.77s-17.67,5.59-17.67,11.72c0,7.75,6.67,11.18,22.54,17.13,21.45,7.93,31.37,19.11,31.37,36.24,0,20.37-15.5,37.68-48.86,37.68-13.88,0-27.58-3.79-34.43-7.57l5.59-22.54Z"/><path class="g" d="M1932.87,367.92v18.21h-47.24v-18.21h47.24Z"/><path class="g" d="M2068.09,362.33c0,40.02-23.98,64-59.67,64s-57.15-27.22-57.15-62.02,23.44-63.64,59.13-63.64,57.69,27.95,57.69,61.66Zm-87.8,1.44c0,23.98,11.18,40.74,29.57,40.74s29.21-17.67,29.21-41.28c0-22-10.28-40.74-29.21-40.74s-29.57,17.67-29.57,41.29Z"/><path class="g" d="M2090.65,424.35v-121.51h32.09l25.24,44.53c7.21,12.8,14.24,27.95,19.83,41.65h.36c-1.62-16.04-2.16-32.45-2.16-50.84v-35.34h25.24v121.51h-28.84l-25.96-46.87c-7.21-12.98-15.32-28.67-21.09-42.91h-.72c.9,16.22,1.26,33.35,1.26,53.18v36.6h-25.24Z"/><path class="g" d="M2219.75,302.83h27.4v98.44h48.32v23.08h-75.72v-121.51Z"/><path class="g" d="M2343.8,302.83v121.51h-27.4v-121.51h27.4Z"/><path class="g" d="M2372.11,424.35v-121.51h32.09l25.24,44.53c7.21,12.8,14.24,27.95,19.83,41.65h.36c-1.62-16.04-2.16-32.45-2.16-50.84v-35.34h25.24v121.51h-28.84l-25.96-46.87c-7.21-12.98-15.32-28.67-21.09-42.91h-.72c.9,16.22,1.26,33.35,1.26,53.18v36.6h-25.24Z"/><path class="g" d="M2573.33,372.97h-44.71v28.85h49.94v22.54h-77.34v-121.51h74.82v22.54h-47.42v25.24h44.71v22.36Z"/></g><g><path class="g" d="M1437.37,503.52h27.22v53.72h.36c2.71-4.69,5.59-9.01,8.47-13.34l27.4-40.38h33.89l-40.2,51.74,42.19,69.77h-31.91l-29.93-52.46-10.27,12.8v39.66h-27.22v-121.51Z"/><path class="g" d="M1580,503.52v69.77c0,21.09,8.11,31.73,21.99,31.73s22.35-10.09,22.35-31.73v-69.77h27.4v68.15c0,37.5-18.93,55.35-50.66,55.35s-48.5-17.13-48.5-55.71v-67.79h27.4Z"/><path class="g" d="M1680.08,505.14c8.83-1.44,21.81-2.52,36.6-2.52,18.03,0,30.65,2.7,39.3,9.56,7.39,5.77,11.36,14.42,11.36,25.6,0,15.32-11,25.96-21.45,29.75v.54c8.47,3.42,13.16,11.36,16.22,22.54,3.79,13.88,7.39,29.75,9.74,34.43h-28.12c-1.8-3.61-4.87-13.34-8.29-28.3-3.42-15.32-8.65-19.29-20.01-19.47h-8.11v47.78h-27.22v-119.89Zm27.22,52.28h10.82c13.7,0,21.82-6.85,21.82-17.49s-7.57-16.77-20.19-16.77c-6.67,0-10.46,.36-12.44,.9v33.35Z"/><path class="g" d="M1792.41,596.72c7.21,3.79,18.75,7.57,30.47,7.57,12.62,0,19.29-5.23,19.29-13.16s-5.77-11.9-20.37-16.95c-20.19-7.21-33.53-18.39-33.53-36.06,0-20.73,17.49-36.42,45.97-36.42,13.88,0,23.8,2.71,31.01,6.13l-6.13,22c-4.69-2.34-13.52-5.77-25.24-5.77s-17.67,5.59-17.67,11.72c0,7.75,6.67,11.18,22.54,17.13,21.45,7.93,31.37,19.11,31.37,36.24,0,20.37-15.5,37.68-48.86,37.68-13.88,0-27.58-3.79-34.43-7.57l5.59-22.54Z"/><path class="g" d="M1936.29,568.6v18.21h-47.24v-18.21h47.24Z"/><path class="g" d="M2071.51,563.01c0,40.02-23.98,64-59.67,64s-57.15-27.22-57.15-62.02,23.44-63.64,59.13-63.64,57.69,27.95,57.69,61.66Zm-87.8,1.44c0,23.98,11.18,40.74,29.57,40.74s29.21-17.67,29.21-41.28c0-22-10.28-40.74-29.21-40.74s-29.57,17.67-29.57,41.29Z"/><path class="g" d="M2094.07,625.03v-121.51h32.09l25.24,44.53c7.21,12.8,14.24,27.95,19.83,41.65h.36c-1.62-16.04-2.16-32.45-2.16-50.84v-35.34h25.24v121.51h-28.84l-25.96-46.87c-7.21-12.98-15.32-28.67-21.09-42.91h-.72c.9,16.22,1.26,33.35,1.26,53.18v36.6h-25.24Z"/><path class="g" d="M2223.18,503.52h27.4v98.44h48.32v23.08h-75.72v-121.51Z"/><path class="g" d="M2347.22,503.52v121.51h-27.4v-121.51h27.4Z"/><path class="g" d="M2375.54,625.03v-121.51h32.09l25.24,44.53c7.21,12.8,14.24,27.95,19.83,41.65h.36c-1.62-16.04-2.16-32.45-2.16-50.84v-35.34h25.24v121.51h-28.84l-25.96-46.87c-7.21-12.98-15.32-28.67-21.09-42.91h-.72c.9,16.22,1.26,33.35,1.26,53.18v36.6h-25.24Z"/><path class="g" d="M2576.75,573.65h-44.71v28.85h49.94v22.54h-77.34v-121.51h74.82v22.54h-47.42v25.24h44.71v22.36Z"/></g><g><g><line class="k" x1="2236.13" y1="1315.73" x2="2236.13" y2="1349.28"/><path class="p" d="M2236.12,1364.34l-3.09-3.45,.88-1,1.6,1.82v-13.12h1.24v13.06l1.58-1.8,.89,1.02-3.1,3.47Z"/></g><text class="e" transform="translate(2116.11 1354.69)"><tspan x="0" y="0">KUR$-ONLINE</tspan></text><circle class="i" cx="2260.74" cy="1252.58" r="29.13"/><g><path class="p" d="M2273.54,1269.31c-2.72-2.69-5.48-5.41-8.2-8.1l2.34-2.34,4.24,4.28v-30.84h3.31v30.68l4.19-4.22,2.38,2.39-8.24,8.14Z"/><path class="c" d="M2263.65,1232.31v3.2h-19.74v-3.2h19.74Z"/><path class="c" d="M2243.91,1238.82h16.43v3.31h-16.43v-3.31Z"/><path class="c" d="M2243.91,1248.74v-3.2h13.12v3.2h-13.12Z"/><path class="c" d="M2243.91,1255.25v-3.2h9.82v3.2h-9.82Z"/><path class="c" d="M2250.42,1258.66v3.2h-6.51v-3.2h6.51Z"/><path class="c" d="M2247.11,1265.27v3.2h-3.2v-3.2h3.2Z"/></g><path class="g" d="M2310.03,1296.28c-.11,.24-.24,.47-.33,.71-1.71,4.41-5.99,5.36-9.38,2.01-6.21-6.13-12.37-12.31-18.54-18.48-.74-.74-1.39-1.57-1.71-1.93-4.41,1.74-8.29,3.73-12.4,4.8-18.77,4.9-38.31-9.07-40.52-28.34-1.93-16.86,9.47-33.5,27.22-36.65,.96-.17,1.91-.36,2.87-.54h5.91c.43,.11,.86,.29,1.3,.33,18.48,2.01,32.03,20.58,28.41,38.85-.96,4.83-2.84,9.22-5.75,13.59,6.63,6.53,13.25,12.98,19.79,19.52,1.22,1.22,2.1,2.76,3.14,4.16v1.97Zm-49.73-19.05c14.31-.08,26.05-11.89,25.97-26.15-.08-14.4-11.92-26.1-26.31-26.02-14.23,.08-25.94,11.96-25.88,26.26,.06,14.24,11.94,25.98,26.22,25.91Z"/></g><path d="M2188.96,1430.18c55.52-6.84,100.77-31.67,135.4-76.25-3.47-2.78-6.31-5.04-9.96-7.95,12.28-5.15,23.92-10.03,36.67-15.38-1.73,13.52-3.34,26.1-5.04,39.38l-9.3-6.67c-40.3,42.12-89.23,65.13-147.76,66.88Z"/><path class="g" d="M1860.46,1324.92c48.26-7.07,87.81-29.01,118.36-67.21-3.19-2.47-5.79-4.49-9.14-7.09,11.28-4.6,21.96-8.95,33.67-13.72-1.59,12.05-3.07,23.28-4.62,35.12l-8.54-5.95c-37,37.56-81.93,58.08-135.68,59.65,2-.24,3.99-.5,5.97-.79"/><path class="h" d="M1887.09,1332.59c-4.01,.48-8.72,.92-12.49,1.22-4.65,.37-9.25,.68-13.47,.71v25.36h25.96v-27.28c-.08,.01,.08,0,0,0Z"/><path class="h" d="M1907.88,1329.1c-3.55,.65-7.56,1.27-11.17,1.77-1.3,.2-2.25,.35-3.41,.55v28.47h25.96v-33.1c-3.81,.84-7.55,1.63-11.37,2.32Z"/><path class="h" d="M1953.39,1313.63c-8.15,3.25-16.44,6.7-25.29,8.99v37.26h25.96v-46.56c-.21,.11-.42,.22-.67,.32Z"/><path class="h" d="M1961.63,1307.62v52.32h25.96v-67.55c-4.22,2.94-6.3,4.33-10.28,6.6"/><text class="f" transform="translate(1807.68 1411.59)"><tspan class="l" x="0" y="0">KUR</tspan><tspan class="j" x="78.56" y="0">S-</tspan><tspan class="l" x="116" y="0">ONLINE</tspan></text><path class="c" d="M1499.23,1324.73c48.26-7.07,87.81-29.01,118.36-67.21-3.19-2.47-5.79-4.49-9.14-7.09,11.28-4.6,21.96-8.95,33.67-13.72-1.59,12.05-3.07,23.28-4.62,35.12l-8.54-5.95c-37,37.56-81.93,58.08-135.68,59.65,2-.24,3.99-.5,5.97-.79"/><path class="h" d="M1525.87,1332.41c-4.01,.48-8.72,.92-12.49,1.22-4.65,.37-9.25,.68-13.47,.71v25.36h25.96v-27.28c-.08,.01,.08,0,0,0Z"/><path class="h" d="M1546.65,1328.91c-3.55,.65-7.56,1.27-11.17,1.77-1.3,.2-2.25,.35-3.41,.55v28.47h25.96v-33.1c-3.81,.84-7.55,1.63-11.37,2.32Z"/><path class="h" d="M1592.17,1313.45c-8.15,3.25-16.44,6.7-25.29,8.99v37.26h25.96v-46.56c-.21,.11-.42,.22-.67,.32Z"/><path class="h" d="M1600.41,1307.44v52.32h25.96v-67.55c-4.22,2.94-6.3,4.33-10.28,6.6"/><g><path class="c" d="M1434.1,1384.46h6.04v11.92h.08c.6-1.04,1.24-2,1.88-2.96l6.08-8.96h7.52l-8.92,11.48,9.36,15.48h-7.08l-6.64-11.64-2.28,2.84v8.8h-6.04v-26.96Z"/><path class="c" d="M1465.74,1384.46v15.48c0,4.68,1.8,7.04,4.88,7.04s4.96-2.24,4.96-7.04v-15.48h6.08v15.12c0,8.32-4.2,12.28-11.24,12.28s-10.76-3.8-10.76-12.36v-15.04h6.08Z"/><path class="c" d="M1487.94,1384.82c1.96-.32,4.84-.56,8.12-.56,4,0,6.8,.6,8.72,2.12,1.64,1.28,2.52,3.2,2.52,5.68,0,3.4-2.44,5.76-4.76,6.6v.12c1.88,.76,2.92,2.52,3.6,5,.84,3.08,1.64,6.6,2.16,7.64h-6.24c-.4-.8-1.08-2.96-1.84-6.28-.76-3.4-1.92-4.28-4.44-4.32h-1.8v10.6h-6.04v-26.6Zm6.04,11.6h2.4c3.04,0,4.84-1.52,4.84-3.88s-1.68-3.72-4.48-3.72c-1.48,0-2.32,.08-2.76,.2v7.4Z"/><path class="c" d="M1512.86,1405.13c1.6,.84,4.16,1.68,6.76,1.68,2.8,0,4.28-1.16,4.28-2.92s-1.28-2.64-4.52-3.76c-4.48-1.6-7.44-4.08-7.44-8,0-4.6,3.88-8.08,10.2-8.08,3.08,0,5.28,.6,6.88,1.36l-1.36,4.88c-1.04-.52-3-1.28-5.6-1.28s-3.92,1.24-3.92,2.6c0,1.72,1.48,2.48,5,3.8,4.76,1.76,6.96,4.24,6.96,8.04,0,4.52-3.44,8.36-10.84,8.36-3.08,0-6.12-.84-7.64-1.68l1.24-5Z"/><path class="c" d="M1544.78,1398.89v4.04h-10.48v-4.04h10.48Z"/><path class="c" d="M1574.77,1397.65c0,8.88-5.32,14.2-13.24,14.2s-12.68-6.04-12.68-13.76,5.2-14.12,13.12-14.12,12.8,6.2,12.8,13.68Zm-19.48,.32c0,5.32,2.48,9.04,6.56,9.04s6.48-3.92,6.48-9.16c0-4.88-2.28-9.04-6.48-9.04s-6.56,3.92-6.56,9.16Z"/><path class="c" d="M1579.78,1411.41v-26.96h7.12l5.6,9.88c1.6,2.84,3.16,6.2,4.4,9.24h.08c-.36-3.56-.48-7.2-.48-11.28v-7.84h5.6v26.96h-6.4l-5.76-10.4c-1.6-2.88-3.4-6.36-4.68-9.52h-.16c.2,3.6,.28,7.4,.28,11.8v8.12h-5.6Z"/><path class="c" d="M1608.42,1384.46h6.08v21.84h10.72v5.12h-16.8v-26.96Z"/><path class="c" d="M1635.94,1384.46v26.96h-6.08v-26.96h6.08Z"/><path class="c" d="M1642.22,1411.41v-26.96h7.12l5.6,9.88c1.6,2.84,3.16,6.2,4.4,9.24h.08c-.36-3.56-.48-7.2-.48-11.28v-7.84h5.6v26.96h-6.4l-5.76-10.4c-1.6-2.88-3.4-6.36-4.68-9.52h-.16c.2,3.6,.28,7.4,.28,11.8v8.12h-5.6Z"/><path class="c" d="M1686.85,1400.01h-9.92v6.4h11.08v5h-17.16v-26.96h16.6v5h-10.52v5.6h9.92v4.96Z"/></g><path class="g" d="M1207.4,1325.98c48.26-7.07,87.81-29.01,118.36-67.21-3.19-2.47-5.79-4.49-9.14-7.09,11.28-4.6,21.96-8.95,33.67-13.72-1.59,12.05-3.07,23.28-4.62,35.12l-8.54-5.95c-37,37.56-81.93,58.08-135.68,59.65,2-.24,3.99-.5,5.97-.79"/><path class="h" d="M1234.04,1333.66c-4.01,.48-8.72,.92-12.49,1.22-4.65,.37-9.25,.68-13.47,.71v25.36h25.96v-27.28c-.08,.01,.08,0,0,0Z"/><path class="h" d="M1254.82,1330.16c-3.55,.65-7.56,1.27-11.17,1.77-1.3,.2-2.25,.35-3.41,.55v28.47h25.96v-33.1c-3.81,.84-7.55,1.63-11.37,2.32Z"/><path class="h" d="M1300.34,1314.69c-8.15,3.25-16.44,6.7-25.29,8.99v37.26h25.96v-46.56c-.21,.11-.42,.22-.67,.32Z"/><path class="h" d="M1308.58,1308.68v52.32h25.96v-67.55c-4.22,2.94-6.3,4.33-10.28,6.6"/><path class="g" d="M1253.1,1627.57c48.26-7.07,87.81-29.01,118.36-67.21-3.19-2.47-5.79-4.49-9.14-7.09,11.28-4.6,21.96-8.95,33.67-13.72-1.59,12.05-3.07,23.28-4.62,35.12l-8.54-5.95c-37,37.56-81.93,58.08-135.68,59.65,2-.24,3.99-.5,5.97-.79"/><path class="h" d="M1279.74,1635.25c-4.01,.48-8.72,.92-12.49,1.22-4.65,.37-9.25,.68-13.47,.71v25.36h25.96v-27.28c-.08,.01,.08,0,0,0Z"/><path class="h" d="M1300.52,1631.75c-3.55,.65-7.56,1.27-11.17,1.77-1.3,.2-2.25,.35-3.41,.55v28.47h25.96v-33.1c-3.81,.84-7.55,1.63-11.37,2.32Z"/><path class="h" d="M1346.04,1616.28c-8.15,3.25-16.44,6.7-25.29,8.99v37.26h25.96v-46.56c-.21,.11-.42,.22-.67,.32Z"/><path class="h" d="M1354.28,1610.27v52.32h25.96v-67.55c-4.22,2.94-6.3,4.33-10.28,6.6"/><g><path class="g" d="M1142.27,1385.7h6.04v11.92h.08c.6-1.04,1.24-2,1.88-2.96l6.08-8.96h7.52l-8.92,11.48,9.36,15.48h-7.08l-6.64-11.64-2.28,2.84v8.8h-6.04v-26.96Z"/><path class="g" d="M1173.91,1385.7v15.48c0,4.68,1.8,7.04,4.88,7.04s4.96-2.24,4.96-7.04v-15.48h6.08v15.12c0,8.32-4.2,12.28-11.24,12.28s-10.76-3.8-10.76-12.36v-15.04h6.08Z"/><path class="g" d="M1196.11,1386.06c1.96-.32,4.84-.56,8.12-.56,4,0,6.8,.6,8.72,2.12,1.64,1.28,2.52,3.2,2.52,5.68,0,3.4-2.44,5.76-4.76,6.6v.12c1.88,.76,2.92,2.52,3.6,5,.84,3.08,1.64,6.6,2.16,7.64h-6.24c-.4-.8-1.08-2.96-1.84-6.28-.76-3.4-1.92-4.28-4.44-4.32h-1.8v10.6h-6.04v-26.6Zm6.04,11.6h2.4c3.04,0,4.84-1.52,4.84-3.88s-1.68-3.72-4.48-3.72c-1.48,0-2.32,.08-2.76,.2v7.4Z"/><path class="g" d="M1221.03,1406.38c1.6,.84,4.16,1.68,6.76,1.68,2.8,0,4.28-1.16,4.28-2.92s-1.28-2.64-4.52-3.76c-4.48-1.6-7.44-4.08-7.44-8,0-4.6,3.88-8.08,10.2-8.08,3.08,0,5.28,.6,6.88,1.36l-1.36,4.88c-1.04-.52-3-1.28-5.6-1.28s-3.92,1.24-3.92,2.6c0,1.72,1.48,2.48,5,3.8,4.76,1.76,6.96,4.24,6.96,8.04,0,4.52-3.44,8.36-10.84,8.36-3.08,0-6.12-.84-7.64-1.68l1.24-5Z"/><path class="g" d="M1252.95,1400.14v4.04h-10.48v-4.04h10.48Z"/><path class="g" d="M1282.94,1398.9c0,8.88-5.32,14.2-13.24,14.2s-12.68-6.04-12.68-13.76,5.2-14.12,13.12-14.12,12.8,6.2,12.8,13.68Zm-19.48,.32c0,5.32,2.48,9.04,6.56,9.04s6.48-3.92,6.48-9.16c0-4.88-2.28-9.04-6.48-9.04s-6.56,3.92-6.56,9.16Z"/><path class="g" d="M1287.95,1412.66v-26.96h7.12l5.6,9.88c1.6,2.84,3.16,6.2,4.4,9.24h.08c-.36-3.56-.48-7.2-.48-11.28v-7.84h5.6v26.96h-6.4l-5.76-10.4c-1.6-2.88-3.4-6.36-4.68-9.52h-.16c.2,3.6,.28,7.4,.28,11.8v8.12h-5.6Z"/><path class="g" d="M1316.59,1385.7h6.08v21.84h10.72v5.12h-16.8v-26.96Z"/><path class="g" d="M1344.11,1385.7v26.96h-6.08v-26.96h6.08Z"/><path class="g" d="M1350.39,1412.66v-26.96h7.12l5.6,9.88c1.6,2.84,3.16,6.2,4.4,9.24h.08c-.36-3.56-.48-7.2-.48-11.28v-7.84h5.6v26.96h-6.4l-5.76-10.4c-1.6-2.88-3.4-6.36-4.68-9.52h-.16c.2,3.6,.28,7.4,.28,11.8v8.12h-5.6Z"/><path class="g" d="M1395.02,1401.26h-9.92v6.4h11.08v5h-17.16v-26.96h16.6v5h-10.52v5.6h9.92v4.96Z"/></g><g><path class="g" d="M1443.07,1539.55h27.22v53.72h.36c2.71-4.69,5.59-9.01,8.47-13.34l27.4-40.38h33.89l-40.2,51.74,42.19,69.77h-31.91l-29.93-52.46-10.27,12.8v39.66h-27.22v-121.51Z"/><path class="g" d="M1585.7,1539.55v69.77c0,21.09,8.11,31.73,21.99,31.73s22.35-10.09,22.35-31.73v-69.77h27.4v68.15c0,37.5-18.93,55.35-50.66,55.35s-48.5-17.13-48.5-55.71v-67.79h27.4Z"/><path class="g" d="M1685.77,1541.17c8.83-1.44,21.81-2.52,36.6-2.52,18.03,0,30.65,2.7,39.3,9.56,7.39,5.77,11.36,14.42,11.36,25.6,0,15.32-11,25.96-21.45,29.75v.54c8.47,3.42,13.16,11.36,16.22,22.54,3.79,13.88,7.39,29.75,9.74,34.43h-28.12c-1.8-3.61-4.87-13.34-8.29-28.3-3.42-15.32-8.65-19.29-20.01-19.47h-8.11v47.78h-27.22v-119.89Zm27.22,52.28h10.82c13.7,0,21.82-6.85,21.82-17.49s-7.57-16.77-20.19-16.77c-6.67,0-10.46,.36-12.44,.9v33.35Z"/><path class="g" d="M1798.11,1632.76c7.21,3.79,18.75,7.57,30.47,7.57,12.62,0,19.29-5.23,19.29-13.16s-5.77-11.9-20.37-16.95c-20.19-7.21-33.53-18.39-33.53-36.06,0-20.73,17.49-36.42,45.97-36.42,13.88,0,23.8,2.71,31.01,6.13l-6.13,22c-4.69-2.34-13.52-5.77-25.24-5.77s-17.67,5.59-17.67,11.72c0,7.75,6.67,11.18,22.54,17.13,21.45,7.93,31.37,19.11,31.37,36.24,0,20.37-15.5,37.68-48.86,37.68-13.88,0-27.58-3.79-34.43-7.57l5.59-22.54Z"/><path class="g" d="M1941.99,1604.63v18.21h-47.24v-18.21h47.24Z"/><path class="g" d="M2077.21,1599.04c0,40.02-23.98,64-59.67,64s-57.15-27.22-57.15-62.02,23.44-63.64,59.13-63.64,57.69,27.95,57.69,61.66Zm-87.8,1.44c0,23.98,11.18,40.74,29.57,40.74s29.21-17.67,29.21-41.28c0-22-10.28-40.74-29.21-40.74s-29.57,17.67-29.57,41.29Z"/><path class="g" d="M2099.77,1661.06v-121.51h32.09l25.24,44.53c7.21,12.8,14.24,27.95,19.83,41.65h.36c-1.62-16.04-2.16-32.45-2.16-50.84v-35.34h25.24v121.51h-28.84l-25.96-46.87c-7.21-12.98-15.32-28.67-21.09-42.91h-.72c.9,16.22,1.26,33.35,1.26,53.18v36.6h-25.24Z"/><path class="g" d="M2228.87,1539.55h27.4v98.44h48.32v23.08h-75.72v-121.51Z"/><path class="g" d="M2352.92,1539.55v121.51h-27.4v-121.51h27.4Z"/><path class="g" d="M2381.23,1661.06v-121.51h32.09l25.24,44.53c7.21,12.8,14.24,27.95,19.83,41.65h.36c-1.62-16.04-2.16-32.45-2.16-50.84v-35.34h25.24v121.51h-28.84l-25.96-46.87c-7.21-12.98-15.32-28.67-21.09-42.91h-.72c.9,16.22,1.26,33.35,1.26,53.18v36.6h-25.24Z"/><path class="g" d="M2582.45,1609.68h-44.71v28.85h49.94v22.54h-77.34v-121.51h74.82v22.54h-47.42v25.24h44.71v22.36Z"/></g><g><path class="g" d="M1446.49,1740.23h27.22v53.72h.36c2.71-4.69,5.59-9.01,8.47-13.34l27.4-40.38h33.89l-40.2,51.74,42.19,69.77h-31.91l-29.93-52.46-10.27,12.8v39.66h-27.22v-121.51Z"/><path class="g" d="M1589.12,1740.23v69.77c0,21.09,8.11,31.73,21.99,31.73s22.35-10.09,22.35-31.73v-69.77h27.4v68.15c0,37.5-18.93,55.35-50.66,55.35s-48.5-17.13-48.5-55.71v-67.79h27.4Z"/><path class="g" d="M1689.2,1741.85c8.83-1.44,21.81-2.52,36.6-2.52,18.03,0,30.65,2.7,39.3,9.56,7.39,5.77,11.36,14.42,11.36,25.6,0,15.32-11,25.96-21.45,29.75v.54c8.47,3.42,13.16,11.36,16.22,22.54,3.79,13.88,7.39,29.75,9.74,34.43h-28.12c-1.8-3.61-4.87-13.34-8.29-28.3-3.42-15.32-8.65-19.29-20.01-19.47h-8.11v47.78h-27.22v-119.89Zm27.22,52.28h10.82c13.7,0,21.82-6.85,21.82-17.49s-7.57-16.77-20.19-16.77c-6.67,0-10.46,.36-12.44,.9v33.35Z"/><path class="g" d="M1801.53,1833.44c7.21,3.79,18.75,7.57,30.47,7.57,12.62,0,19.29-5.23,19.29-13.16s-5.77-11.9-20.37-16.95c-20.19-7.21-33.53-18.39-33.53-36.06,0-20.73,17.49-36.42,45.97-36.42,13.88,0,23.8,2.71,31.01,6.13l-6.13,22c-4.69-2.34-13.52-5.77-25.24-5.77s-17.67,5.59-17.67,11.72c0,7.75,6.67,11.18,22.54,17.13,21.45,7.93,31.37,19.11,31.37,36.24,0,20.37-15.5,37.68-48.86,37.68-13.88,0-27.58-3.79-34.43-7.57l5.59-22.54Z"/><path class="g" d="M1945.41,1805.31v18.21h-47.24v-18.21h47.24Z"/><path class="g" d="M2080.64,1799.73c0,40.02-23.98,64-59.67,64s-57.15-27.22-57.15-62.02,23.44-63.64,59.13-63.64,57.69,27.95,57.69,61.66Zm-87.8,1.44c0,23.98,11.18,40.74,29.57,40.74s29.21-17.67,29.21-41.28c0-22-10.28-40.74-29.21-40.74s-29.57,17.67-29.57,41.29Z"/><path class="g" d="M2103.19,1861.74v-121.51h32.09l25.24,44.53c7.21,12.8,14.24,27.95,19.83,41.65h.36c-1.62-16.04-2.16-32.45-2.16-50.84v-35.34h25.24v121.51h-28.84l-25.96-46.87c-7.21-12.98-15.32-28.67-21.09-42.91h-.72c.9,16.22,1.26,33.35,1.26,53.18v36.6h-25.24Z"/><path class="g" d="M2232.3,1740.23h27.4v98.44h48.32v23.08h-75.72v-121.51Z"/><path class="g" d="M2356.35,1740.23v121.51h-27.4v-121.51h27.4Z"/><path class="g" d="M2384.66,1861.74v-121.51h32.09l25.24,44.53c7.21,12.8,14.24,27.95,19.83,41.65h.36c-1.62-16.04-2.16-32.45-2.16-50.84v-35.34h25.24v121.51h-28.84l-25.96-46.87c-7.21-12.98-15.32-28.67-21.09-42.91h-.72c.9,16.22,1.26,33.35,1.26,53.18v36.6h-25.24Z"/><path class="g" d="M2585.88,1810.36h-44.71v28.85h49.94v22.54h-77.34v-121.51h74.82v22.54h-47.42v25.24h44.71v22.36Z"/></g><text class="m" transform="translate(1598.66 373.21)"><tspan x="0" y="0">УAлов</tspan><tspan class="n" x="32.27" y="0">и</tspan><tspan class="o" x="38.88" y="0">т</tspan><tspan x="43.57" y="0">е свое</tspan></text><g><circle class="h" cx="1952.27" cy="177.53" r="22.54"/><text class="b" transform="translate(1944.15 189.19)"><tspan x="0" y="0">1</tspan></text></g><g><g><path class="g" d="M182.64,399.34v-74.05h16.59v32.74h.22c1.1-1.9,2.82-4.61,5.16-8.13l16.7-24.61h20.65l-24.5,31.53,25.71,42.52h-19.45l-18.24-31.97-6.26,7.8v24.17h-16.59Z"/><path class="g" d="M252.84,325.29h16.7v42.52c0,6.37,1.15,11.19,3.46,14.45,2.31,3.26,5.62,4.89,9.94,4.89,9.08,0,13.62-6.44,13.62-19.34v-42.52h16.7v41.53c0,11.21-2.67,19.63-8.02,25.27-5.35,5.64-12.96,8.46-22.85,8.46-19.7,0-29.55-11.32-29.55-33.95v-41.31Z"/><path class="g" d="M330.52,399.34v-73.06c6.3-1.02,13.73-1.54,22.3-1.54,11.06,0,19.04,1.94,23.95,5.82,4.61,3.59,6.92,8.79,6.92,15.6,0,4.39-1.3,8.2-3.9,11.43-2.6,3.22-5.66,5.46-9.17,6.7v.33c4.61,1.83,7.91,6.41,9.89,13.73,.44,1.61,1.13,4.28,2.09,8.02,.95,3.74,1.72,6.61,2.31,8.62,.59,2.02,1.1,3.46,1.54,4.34h-17.14c-1.39-2.71-3.08-8.46-5.05-17.25-1.03-4.54-2.42-7.64-4.17-9.28s-4.43-2.51-8.02-2.58h-4.94v29.11h-16.59Zm16.59-61.52v20.32h6.59c4.17,0,7.43-.95,9.78-2.86,2.34-1.9,3.52-4.5,3.52-7.8s-1.08-5.82-3.24-7.58c-2.16-1.76-5.18-2.64-9.06-2.64s-6.26,.18-7.58,.55Z"/><path class="g" d="M395.55,395.82l3.41-13.73c5.86,3.08,12.05,4.61,18.57,4.61,3.81,0,6.72-.71,8.73-2.14,2.01-1.43,3.02-3.39,3.02-5.88,0-2.27-.93-4.17-2.8-5.71-1.87-1.54-5.07-3.08-9.61-4.61-13.62-4.83-20.43-12.16-20.43-21.97,0-6.44,2.54-11.76,7.64-15.93,5.09-4.17,11.88-6.26,20.38-6.26,7.32,0,13.62,1.25,18.9,3.74l-3.74,13.4c-4.69-2.34-9.82-3.52-15.38-3.52-3.44,0-6.1,.7-7.96,2.09-1.87,1.39-2.8,3.08-2.8,5.05,0,2.2,.99,3.99,2.97,5.38,1.98,1.39,5.57,3.08,10.77,5.05,6.59,2.42,11.43,5.4,14.5,8.95,3.08,3.55,4.61,7.93,4.61,13.13,0,6.59-2.55,12.07-7.64,16.42-5.09,4.36-12.47,6.54-22.14,6.54-4.03,0-7.96-.46-11.81-1.37-3.85-.92-6.9-1.99-9.17-3.24Z"/><path class="g" d="M598.07,400.55c-2.78,0-5.09-.95-6.92-2.86-1.83-1.9-2.75-4.32-2.75-7.25s.92-5.46,2.75-7.36c1.83-1.9,4.21-2.86,7.14-2.86s5.18,.93,6.98,2.8c1.79,1.87,2.73,4.34,2.8,7.42,0,2.93-.92,5.35-2.75,7.25-1.83,1.9-4.25,2.86-7.25,2.86Z"/><path class="g" d="M621.47,399.34v-74.05h16.59v32.74h.22c1.1-1.9,2.82-4.61,5.16-8.13l16.7-24.61h20.65l-24.5,31.53,25.71,42.52h-19.45l-18.24-31.97-6.26,7.8v24.17h-16.59Z"/><path class="g" d="M688.92,399.34v-9.01l35.27-50.76v-.44h-32.08v-13.84h53.72v9.67l-34.5,50.1v.44h35.05v13.84h-57.46Z"/></g><g><circle class="h" cx="520.64" cy="358.93" r="61.9"/><text class="d" transform="translate(498.35 390.96)"><tspan x="0" y="0">1</tspan></text></g></g></svg>