<svg width="172" height="51" viewBox="0 0 172 51" fill="none" xmlns="http://www.w3.org/2000/svg">
<path d="M3.15613 36.5197C23.0246 33.609 39.3072 24.5764 51.8845 8.84962C50.5711 7.83273 49.5007 7.0011 48.1216 5.93069C52.7655 4.03689 57.1624 2.24602 61.9834 0.282227C61.3288 5.24316 60.7195 9.86651 60.0813 14.741L56.5654 12.2914C41.3327 27.7547 22.8352 36.2027 0.706543 36.8491C1.52993 36.7502 2.34921 36.6432 3.16437 36.5238" fill="#000045"/>
<path d="M14.1237 39.6777C12.4728 39.8753 10.5337 40.0565 8.98158 40.18C7.06719 40.3323 5.17339 40.46 3.43604 40.4723V50.9129H14.1237V39.6818C14.0907 39.686 14.1566 39.6818 14.1237 39.6818V39.6777Z" fill="#3689CE"/>
<path d="M22.6788 38.2401C21.2173 38.5077 19.5664 38.7629 18.0802 38.9688C17.5449 39.0511 17.1538 39.1129 16.6763 39.1952V50.9162H27.3639V37.2891C25.7953 37.6349 24.2556 37.9601 22.6829 38.2442L22.6788 38.2401Z" fill="#3689CE"/>
<path d="M41.4191 31.8708C38.0638 33.2088 34.6508 34.6292 31.0073 35.5719V50.9117H41.695V31.7432C41.6085 31.7885 41.522 31.8337 41.4191 31.8749V31.8708Z" fill="#3689CE"/>
<path d="M44.8115 29.3981V50.938H55.4992V23.1279C53.7618 24.3383 52.9055 24.9106 51.2669 25.8451" fill="#3689CE"/>
<path d="M67.4292 32.8223H69.9158V37.7297H69.9488C70.1958 37.3015 70.4593 36.9063 70.7228 36.5111L73.2259 32.8223H76.3218L72.6495 37.5485L76.503 43.9216H73.5882L70.8545 39.1294L69.9158 40.2987V43.9216H67.4292V32.8223Z" fill="#000045"/>
<path d="M80.4553 32.8223V39.1953C80.4553 41.1221 81.1963 42.0937 82.4643 42.0937C83.7324 42.0937 84.5063 41.1715 84.5063 39.1953V32.8223H87.0095V39.0471C87.0095 42.4724 85.2803 44.1027 82.382 44.1027C79.4837 44.1027 77.9521 42.5383 77.9521 39.0142V32.8223H80.4553Z" fill="#000045"/>
<path d="M89.5952 32.9669C90.4021 32.8351 91.5878 32.7363 92.9382 32.7363C94.585 32.7363 95.7377 32.9833 96.5282 33.6091C97.2034 34.1361 97.5656 34.9266 97.5656 35.9476C97.5656 37.3473 96.5611 38.3189 95.606 38.6648V38.7142C96.38 39.027 96.8081 39.7516 97.0881 40.7726C97.4339 42.0407 97.7633 43.4898 97.9773 43.918H95.4084C95.2437 43.5886 94.9637 42.6994 94.6508 41.3325C94.338 39.9328 93.8604 39.5705 92.8229 39.554H92.0819V43.918H89.5952V32.9669ZM92.0819 37.7426H93.0699C94.3215 37.7426 95.0625 37.1168 95.0625 36.1452C95.0625 35.1736 94.3709 34.6137 93.2181 34.6137C92.6088 34.6137 92.263 34.6466 92.0819 34.696V37.7426Z" fill="#000045"/>
<path d="M99.8543 41.3348C100.513 41.6806 101.567 42.0265 102.637 42.0265C103.79 42.0265 104.399 41.5489 104.399 40.8243C104.399 40.0997 103.872 39.7374 102.539 39.2763C100.694 38.6176 99.4755 37.5966 99.4755 35.9828C99.4755 34.089 101.073 32.6562 103.675 32.6562C104.943 32.6562 105.849 32.9033 106.507 33.2162L105.947 35.2252C105.519 35.0112 104.712 34.6983 103.642 34.6983C102.571 34.6983 102.028 35.2088 102.028 35.7687C102.028 36.4768 102.637 36.7897 104.086 37.3331C106.046 38.0577 106.952 39.0787 106.952 40.6432C106.952 42.504 105.536 44.0849 102.489 44.0849C101.221 44.0849 99.9695 43.7391 99.3438 43.3933L99.8543 41.3348Z" fill="#000045"/>
<path d="M112.996 38.7666V40.4299H108.681V38.7666H112.996Z" fill="#000045"/>
<path d="M125.343 38.256C125.343 41.9119 123.152 44.1021 119.892 44.1021C116.631 44.1021 114.671 41.6155 114.671 38.4372C114.671 35.2589 116.812 32.624 120.073 32.624C123.333 32.624 125.343 35.1765 125.343 38.256ZM117.323 38.3878C117.323 40.578 118.344 42.1095 120.023 42.1095C121.703 42.1095 122.691 40.4957 122.691 38.3384C122.691 36.3293 121.753 34.6166 120.023 34.6166C118.294 34.6166 117.323 36.2305 117.323 38.3878Z" fill="#000045"/>
<path d="M127.405 43.9216V32.8223H130.337L132.642 36.8898C133.301 38.059 133.943 39.4423 134.454 40.6939H134.486C134.338 39.2283 134.289 37.7297 134.289 36.05V32.8223H136.594V43.9216H133.959L131.588 39.6399C130.929 38.4543 130.188 37.0216 129.661 35.7206H129.595C129.678 37.2027 129.711 38.7672 129.711 40.5786V43.9216H127.405Z" fill="#000045"/>
<path d="M139.196 32.8223H141.699V41.8137H146.112V43.9216H139.196V32.8223Z" fill="#000045"/>
<path d="M150.526 32.8223V43.9216H148.023V32.8223H150.526Z" fill="#000045"/>
<path d="M153.111 43.9216V32.8223H156.043L158.348 36.8898C159.007 38.059 159.649 39.4423 160.16 40.6939H160.193C160.044 39.2283 159.995 37.7297 159.995 36.05V32.8223H162.3V43.9216H159.666L157.294 39.6399C156.635 38.4543 155.894 37.0216 155.367 35.7206H155.302C155.384 37.2027 155.417 38.7672 155.417 40.5786V43.9216H153.111Z" fill="#000045"/>
<path d="M171.486 39.2283H167.402V41.8631H171.963V43.9216H164.898V32.8223H171.733V34.8807H167.402V37.1862H171.486V39.2283Z" fill="#000045"/>
</svg>
