<svg width="190" height="131" viewBox="0 0 190 131" fill="none" xmlns="http://www.w3.org/2000/svg">
<g clip-path="url(#clip0_1914_255)">
<path d="M48.7365 65.8366C84.8493 60.5484 114.444 44.1379 137.305 15.5653C134.918 13.7178 132.972 12.2069 130.466 10.2622C138.906 6.82151 146.898 3.56783 155.661 0C154.471 9.01308 153.363 17.4128 152.204 26.2688L145.813 21.8184C118.126 49.9122 84.5051 65.2607 44.2842 66.435C45.7808 66.2555 47.2699 66.061 48.7515 65.8441" fill="white"/>
<path d="M68.6714 71.5742C65.6707 71.9332 62.1462 72.2624 59.3252 72.4867C55.8456 72.7635 52.4034 72.9954 49.2456 73.0178V91.9864H68.6714V71.5817C68.6115 71.5892 68.7313 71.5817 68.6714 71.5817V71.5742Z" fill="#3689CE"/>
<path d="M84.2207 68.9622C81.5643 69.4484 78.5636 69.9121 75.8622 70.2861C74.8894 70.4357 74.1786 70.5479 73.3105 70.6975V91.9923H92.7363V67.2344C89.8853 67.8627 87.0867 68.4536 84.2282 68.9697L84.2207 68.9622Z" fill="#3689CE"/>
<path d="M118.283 57.392C112.185 59.8229 105.981 62.4035 99.3589 64.1163V91.9858H118.785V57.1602C118.628 57.2424 118.47 57.3247 118.283 57.3995V57.392Z" fill="#3689CE"/>
<path d="M124.449 52.8975V92.0314H143.875V41.5059C140.717 43.7049 139.161 44.7446 136.183 46.4425" fill="#3689CE"/>
<path d="M0 110.506H4.51971V119.422H4.57958C5.02855 118.644 5.50746 117.926 5.98637 117.208L10.536 110.506H16.1632L9.4884 119.093L16.4925 130.671H11.1945L6.22583 121.965L4.51971 124.089V130.671H0V110.506Z" fill="white"/>
<path d="M23.6761 110.506V122.084C23.6761 125.585 25.023 127.35 27.3278 127.35C29.6326 127.35 31.0393 125.675 31.0393 122.084V110.506H35.589V121.815C35.589 128.038 32.4461 131 27.1781 131C21.9101 131 19.1265 128.158 19.1265 121.755V110.506H23.6761Z" fill="white"/>
<path d="M40.2881 110.774C41.7547 110.535 43.9098 110.355 46.3643 110.355C49.3574 110.355 51.4527 110.804 52.8894 111.941C54.1166 112.899 54.7751 114.335 54.7751 116.19C54.7751 118.733 52.9493 120.498 51.2132 121.126V121.216C52.62 121.785 53.3982 123.101 53.9071 124.956C54.5357 127.26 55.1343 129.893 55.5234 130.67H50.854C50.5547 130.072 50.0459 128.456 49.4772 125.973C48.9085 123.43 48.0404 122.772 46.1547 122.742H44.8078V130.67H40.2881V110.774ZM44.8078 119.451H46.6037C48.8785 119.451 50.2255 118.314 50.2255 116.549C50.2255 114.783 48.9683 113.766 46.8731 113.766C45.7656 113.766 45.137 113.826 44.8078 113.916V119.451Z" fill="white"/>
<path d="M58.9357 125.974C60.133 126.603 62.0486 127.231 63.9942 127.231C66.0894 127.231 67.1969 126.363 67.1969 125.047C67.1969 123.73 66.2391 123.072 63.8146 122.234C60.4622 121.038 58.2473 119.183 58.2473 116.251C58.2473 112.81 61.1507 110.207 65.8799 110.207C68.1847 110.207 69.8309 110.656 71.0282 111.224L70.0105 114.874C69.2323 114.485 67.7656 113.917 65.82 113.917C63.8745 113.917 62.8867 114.844 62.8867 115.862C62.8867 117.148 63.9942 117.717 66.6282 118.704C70.1901 120.02 71.8363 121.875 71.8363 124.718C71.8363 128.099 69.2622 130.971 63.7248 130.971C61.4201 130.971 59.1452 130.342 58.0078 129.714L58.9357 125.974Z" fill="white"/>
<path d="M82.8216 121.307V124.328H74.9795V121.307H82.8216Z" fill="white"/>
<path d="M105.263 120.379C105.263 127.021 101.282 131 95.3556 131C89.4291 131 85.8672 126.482 85.8672 120.708C85.8672 114.934 89.7583 110.146 95.6848 110.146C101.611 110.146 105.263 114.784 105.263 120.379ZM90.6862 120.618C90.6862 124.597 92.542 127.38 95.595 127.38C98.6481 127.38 100.444 124.448 100.444 120.528C100.444 116.878 98.7379 113.767 95.595 113.767C92.4522 113.767 90.6862 116.699 90.6862 120.618Z" fill="white"/>
<path d="M109.012 130.671V110.506H114.34L118.53 117.896C119.727 120.02 120.895 122.533 121.823 124.807H121.882C121.613 122.144 121.523 119.422 121.523 116.37V110.506H125.714V130.671H120.925L116.614 122.892C115.417 120.738 114.07 118.135 113.112 115.772H112.993C113.142 118.464 113.202 121.307 113.202 124.598V130.671H109.012Z" fill="white"/>
<path d="M130.443 110.506H134.993V126.842H143.014V130.671H130.443V110.506Z" fill="white"/>
<path d="M151.036 110.506V130.671H146.486V110.506H151.036Z" fill="white"/>
<path d="M155.735 130.671V110.506H161.063L165.254 117.896C166.451 120.02 167.618 122.533 168.546 124.807H168.606C168.337 122.144 168.247 119.422 168.247 116.37V110.506H172.437V130.671H167.648L163.338 122.892C162.141 120.738 160.794 118.135 159.836 115.772H159.716C159.866 118.464 159.926 121.307 159.926 124.598V130.671H155.735Z" fill="white"/>
<path d="M189.132 122.144H181.709V126.931H190V130.671H177.159V110.506H189.581V114.246H181.709V118.434H189.132V122.144Z" fill="white"/>
</g>
<defs>
<clipPath id="clip0_1914_255">
<rect width="190" height="131" fill="white"/>
</clipPath>
</defs>
</svg>
