<svg width="250" height="172" viewBox="0 0 250 172" fill="none" xmlns="http://www.w3.org/2000/svg">
<path d="M64.4895 86.4061C111.723 79.4864 150.432 58.013 180.333 20.6253C177.21 18.2078 174.666 16.2308 171.387 13.6861C182.427 9.18388 192.88 4.92638 204.341 0.257812C202.785 12.0516 201.336 23.0428 199.819 34.631L191.461 28.8075C155.248 65.5688 111.273 85.6525 58.666 87.1891C60.6235 86.9542 62.5712 86.6997 64.5091 86.4159" fill="#000045"/>
<path d="M90.5632 93.9131C86.6385 94.3829 82.0287 94.8135 78.3388 95.1071C73.7877 95.4693 69.2855 95.7727 65.1553 95.802V120.623H90.5632V93.9229C90.4849 93.9327 90.6415 93.9229 90.5632 93.9229V93.9131Z" fill="#3689CE"/>
<path d="M110.901 90.4953C107.427 91.1314 103.502 91.7382 99.9688 92.2276C98.6965 92.4234 97.7667 92.5702 96.6313 92.7659V120.631H122.039V88.2344C118.31 89.0565 114.65 89.8297 110.911 90.505L110.901 90.4953Z" fill="#3689CE"/>
<path d="M155.453 75.3561C147.477 78.537 139.363 81.9137 130.701 84.155V120.623H156.109V75.0527C155.904 75.1604 155.698 75.2681 155.453 75.3659V75.3561Z" fill="#3689CE"/>
<path d="M163.518 69.4735V120.681H188.926V54.5674C184.796 57.4449 182.76 58.8053 178.865 61.027" fill="#3689CE"/>
<path d="M0.744629 144.859H6.65619V156.526H6.73449C7.32173 155.508 7.94812 154.568 8.57451 153.629L14.5252 144.859H21.8853L13.155 156.095L22.316 171.246H15.3865L8.8877 159.854L6.65619 162.633V171.246H0.744629V144.859Z" fill="#000045"/>
<path d="M31.7117 144.859V160.01C31.7117 164.591 33.4734 166.9 36.4879 166.9C39.5024 166.9 41.3424 164.708 41.3424 160.01V144.859H47.2932V159.658C47.2932 167.801 43.1825 171.677 36.2922 171.677C29.4019 171.677 25.761 167.958 25.761 159.58V144.859H31.7117Z" fill="#000045"/>
<path d="M53.4395 145.207C55.3578 144.894 58.1765 144.659 61.3868 144.659C65.3017 144.659 68.0422 145.246 69.9214 146.734C71.5265 147.987 72.3878 149.866 72.3878 152.293C72.3878 155.621 69.9997 157.931 67.729 158.753V158.87C69.569 159.614 70.5869 161.337 71.2524 163.764C72.0746 166.779 72.8576 170.224 73.3665 171.242H67.2592C66.8677 170.459 66.2022 168.345 65.4583 165.095C64.7145 161.767 63.5792 160.906 61.1127 160.867H59.351V171.242H53.4395V145.207ZM59.351 156.561H61.7C64.6753 156.561 66.4371 155.073 66.4371 152.763C66.4371 150.453 64.7928 149.122 62.0523 149.122C60.6038 149.122 59.7817 149.201 59.351 149.318V156.561Z" fill="#000045"/>
<path d="M77.8298 165.1C79.3958 165.923 81.9014 166.745 84.4461 166.745C87.1865 166.745 88.6351 165.609 88.6351 163.887C88.6351 162.164 87.3823 161.303 84.2112 160.207C79.8265 158.641 76.9294 156.214 76.9294 152.377C76.9294 147.875 80.7269 144.469 86.9125 144.469C89.927 144.469 92.0802 145.056 93.6462 145.8L92.3151 150.576C91.2972 150.067 89.3789 149.323 86.8342 149.323C84.2895 149.323 82.9976 150.537 82.9976 151.868C82.9976 153.551 84.4461 154.295 87.8912 155.587C92.55 157.31 94.7032 159.737 94.7032 163.456C94.7032 167.88 91.3364 171.638 84.0938 171.638C81.0792 171.638 78.1039 170.816 76.6162 169.994L77.8298 165.1Z" fill="#000045"/>
<path d="M109.071 158.992V162.946H98.8135V158.992H109.071Z" fill="#000045"/>
<path d="M138.423 157.779C138.423 166.47 133.217 171.677 125.465 171.677C117.713 171.677 113.055 165.765 113.055 158.209C113.055 150.654 118.144 144.39 125.896 144.39C133.647 144.39 138.423 150.458 138.423 157.779ZM119.358 158.092C119.358 163.299 121.785 166.94 125.778 166.94C129.771 166.94 132.12 163.103 132.12 157.974C132.12 153.198 129.889 149.127 125.778 149.127C121.668 149.127 119.358 152.963 119.358 158.092Z" fill="#000045"/>
<path d="M143.327 171.246V144.859H150.295L155.776 154.529C157.342 157.309 158.869 160.597 160.083 163.573H160.161C159.809 160.088 159.691 156.526 159.691 152.533V144.859H165.172V171.246H158.908L153.271 161.067C151.705 158.248 149.943 154.842 148.69 151.75H148.534C148.729 155.273 148.808 158.992 148.808 163.299V171.246H143.327Z" fill="#000045"/>
<path d="M171.358 144.859H177.309V166.235H187.801V171.246H171.358V144.859Z" fill="#000045"/>
<path d="M198.293 144.859V171.246H192.342V144.859H198.293Z" fill="#000045"/>
<path d="M204.438 171.246V144.859H211.407L216.888 154.529C218.454 157.309 219.981 160.597 221.194 163.573H221.273C220.92 160.088 220.803 156.526 220.803 152.533V144.859H226.284V171.246H220.02L214.382 161.067C212.816 158.248 211.055 154.842 209.802 151.75H209.645C209.841 155.273 209.919 158.992 209.919 163.299V171.246H204.438Z" fill="#000045"/>
<path d="M248.12 160.088H238.411V166.352H249.255V171.246H232.46V144.859H248.707V149.753H238.411V155.234H248.12V160.088Z" fill="#000045"/>
</svg>
