<svg width="267" height="37" viewBox="0 0 267 37" fill="none" xmlns="http://www.w3.org/2000/svg">
<g clip-path="url(#clip0_2104_267)">
<path d="M1.77831 26.3704C16.1537 24.2522 27.9347 17.6791 37.0348 6.23458C36.0845 5.49458 35.3101 4.88939 34.3122 4.11045C37.6722 2.73231 40.8535 1.42907 44.3416 0C43.868 3.61012 43.4272 6.97458 42.9655 10.5218L40.4216 8.73919C29.3943 19.992 16.0078 26.1397 0 26.607C0.595749 26.5351 1.18852 26.4572 1.77831 26.3704Z" fill="white"/>
<path d="M9.71379 28.668C8.51931 28.8118 7.11632 28.9436 5.99333 29.0335C4.60821 29.1443 3.23799 29.2372 1.98096 29.2462V36.8439H9.71379V28.671C9.68996 28.674 9.73762 28.671 9.71379 28.671V28.668Z" fill="white"/>
<path d="M15.9036 27.6227C14.8461 27.8175 13.6516 28.0032 12.5763 28.153C12.1891 28.2129 11.9061 28.2579 11.5605 28.3178V36.8473H19.2934V26.9307C18.1585 27.1823 17.0444 27.419 15.9065 27.6257L15.9036 27.6227Z" fill="white"/>
<path d="M29.46 22.9884C27.0323 23.9621 24.5629 24.9957 21.9268 25.6817V36.8447H29.6596V22.8955C29.597 22.9285 29.5345 22.9614 29.46 22.9914V22.9884Z" fill="white"/>
<path d="M31.9141 21.1878V36.8627H39.6469V16.625C38.3899 17.5058 37.7703 17.9222 36.5847 18.6023" fill="white"/>
<path d="M52.4082 13.712H57.5108V23.8413H57.5793C58.0857 22.9575 58.6278 22.1426 59.167 21.3247L64.3053 13.709H70.659L63.1228 23.4668L71.0313 36.622H65.05L59.438 26.7294L57.5108 29.1441V36.622H52.4082V13.712Z" fill="white"/>
<path d="M79.1456 13.7119V26.8671C79.1456 30.8458 80.6678 32.8501 83.2682 32.8501C85.8686 32.8501 87.4593 30.9476 87.4593 26.8671V13.7119H92.5976V26.5616C92.5976 33.632 89.0499 36.9994 83.1014 36.9994C77.1528 36.9994 74.0103 33.7698 74.0103 26.4956V13.7119H79.1486H79.1456Z" fill="white"/>
<path d="M97.9087 14.0174C99.5649 13.7447 101.999 13.541 104.769 13.541C108.15 13.541 110.515 14.0503 112.138 15.3416C113.523 16.4291 114.268 18.0619 114.268 20.1681C114.268 23.0562 112.207 25.0634 110.247 25.7765V25.8783C111.834 26.5255 112.713 28.0204 113.288 30.1266C113.997 32.7451 114.673 35.735 115.114 36.6188H109.842C109.505 35.9387 108.93 34.1022 108.287 31.283C107.643 28.3949 106.663 27.646 104.533 27.61H103.011V36.6188H97.9087V14.0174ZM103.011 23.877H105.04C107.607 23.877 109.13 22.5858 109.13 20.5785C109.13 18.5712 107.709 17.4178 105.344 17.4178C104.093 17.4178 103.384 17.4867 103.011 17.5885V23.877Z" fill="white"/>
<path d="M118.968 31.2868C120.321 31.9999 122.483 32.7159 124.682 32.7159C127.047 32.7159 128.298 31.7302 128.298 30.2352C128.298 28.7403 127.217 27.9913 124.479 27.0386C120.693 25.6784 118.194 23.5722 118.194 20.2407C118.194 16.331 121.474 13.374 126.811 13.374C129.415 13.374 131.274 13.8833 132.626 14.5305L131.476 18.6769C130.597 18.2335 128.941 17.5893 126.743 17.5893C124.545 17.5893 123.431 18.6439 123.431 19.8003C123.431 21.2624 124.682 21.9095 127.654 23.03C131.676 24.525 133.535 26.6341 133.535 29.8637C133.535 33.7045 130.627 36.9671 124.375 36.9671C121.771 36.9671 119.204 36.2541 117.92 35.5381L118.968 31.2898V31.2868Z" fill="white"/>
<path d="M145.944 25.9834V29.4168H137.088V25.9834H145.944Z" fill="white"/>
<path d="M171.296 24.929C171.296 32.4758 166.801 36.9967 160.108 36.9967C153.414 36.9967 149.393 31.8647 149.393 25.3035C149.393 18.7424 153.787 13.3018 160.48 13.3018C167.173 13.3018 171.296 18.5716 171.296 24.929ZM154.835 25.2017C154.835 29.7226 156.929 32.8833 160.379 32.8833C163.828 32.8833 165.854 29.5518 165.854 25.0998C165.854 20.9534 163.926 17.4182 160.379 17.4182C156.831 17.4182 154.835 20.7497 154.835 25.2047V25.2017Z" fill="white"/>
<path d="M175.526 36.6249V13.7119H181.543L186.276 22.1096C187.629 24.5243 188.945 27.3794 189.994 29.962H190.062C189.758 26.936 189.657 23.8442 189.657 20.3749V13.7119H194.387V36.6249H188.981L184.114 27.7869C182.761 25.3392 181.242 22.3822 180.158 19.6948H180.024C180.194 22.7537 180.262 25.9833 180.262 29.7223V36.622H175.529L175.526 36.6249Z" fill="white"/>
<path d="M199.731 13.7119H204.869V32.2748H213.928V36.6249H199.731V13.7119Z" fill="white"/>
<path d="M222.986 13.7119V36.6249H217.848V13.7119H222.986Z" fill="white"/>
<path d="M228.294 36.6249V13.7119H234.312L239.045 22.1096C240.397 24.5243 241.714 27.3794 242.762 29.962H242.831C242.527 26.936 242.426 23.8442 242.426 20.3749V13.7119H247.156V36.6249H241.749L236.882 27.7869C235.53 25.3392 234.011 22.3822 232.926 19.6948H232.792C232.962 22.7537 233.031 25.9833 233.031 29.7223V36.622H228.297L228.294 36.6249Z" fill="white"/>
<path d="M266.02 26.936H257.638V32.3767H267V36.6249H252.5V13.7119H266.526V17.9602H257.638V22.7207H266.02V26.936Z" fill="white"/>
</g>
<defs>
<clipPath id="clip0_2104_267">
<rect width="267" height="37" fill="white"/>
</clipPath>
</defs>
</svg>
