<svg width="21" height="24" viewBox="0 0 21 24" fill="none" xmlns="http://www.w3.org/2000/svg">
<path d="M8.00487 10.4C8.00487 9.0763 9.08045 8.00067 10.4063 8.00067C11.7322 8.00067 12.8078 9.0763 12.8078 10.4C12.8078 11.7238 11.7322 12.7994 10.4063 12.7994C9.08047 12.7994 8.00487 11.7238 8.00487 10.4Z" fill="white"/>
<path fill-rule="evenodd" clip-rule="evenodd" d="M0 10.4C0 4.65687 4.6607 0 10.4063 0C16.152 0 20.8127 4.65687 20.8127 10.4C20.8127 14.6811 18.6701 18.0727 16.3755 20.3659C15.2255 21.5151 14.0209 22.4061 12.9891 23.0142C12.4735 23.3181 11.9916 23.5569 11.5726 23.7222C11.1771 23.8783 10.7619 24 10.4063 24C10.0507 24 9.63556 23.8783 9.24003 23.7222C8.8211 23.5569 8.3392 23.3181 7.82357 23.0142C6.79177 22.4061 5.58714 21.5151 4.4372 20.3659C2.14256 18.0727 0 14.6811 0 10.4ZM10.4063 6.39969C8.19725 6.39969 6.4039 8.19111 6.4039 10.4C6.4039 12.6089 8.19724 14.4004 10.4063 14.4004C12.6154 14.4004 14.4088 12.6089 14.4088 10.4C14.4088 8.19111 12.6154 6.39969 10.4063 6.39969Z" fill="white"/>
</svg>
