<svg width="16" height="16" viewBox="0 0 16 16" fill="none" xmlns="http://www.w3.org/2000/svg">
<path fill-rule="evenodd" clip-rule="evenodd" d="M0 8C0 3.58172 3.58172 0 8 0C12.4183 0 16 3.58172 16 8C16 12.4183 12.4183 16 8 16C3.58172 16 0 12.4183 0 8ZM7.46667 4.26667C5.69936 4.26667 4.26667 5.69936 4.26667 7.46667C4.26667 9.23398 5.69936 10.6667 7.46667 10.6667C8.15778 10.6667 8.79772 10.4476 9.32082 10.0751L10.8229 11.5772L11.5772 10.8229L10.0751 9.32082C10.4476 8.79772 10.6667 8.15778 10.6667 7.46667C10.6667 5.69936 9.23398 4.26667 7.46667 4.26667Z" fill="#000045"/>
</svg>
