<svg width="28" height="28" viewBox="0 0 28 28" fill="none" xmlns="http://www.w3.org/2000/svg">
<path d="M27.9996 26.4072C27.9623 26.4872 27.9196 26.5645 27.8876 26.6458C27.3128 28.132 25.8684 28.4505 24.7268 27.3229C22.6357 25.2569 20.5578 23.1789 18.4787 21.101C18.2293 20.8517 18.0092 20.5731 17.9012 20.4505C16.4142 21.0357 15.1085 21.7048 13.7229 22.0673C7.3987 23.7188 0.815803 19.0123 0.0716255 12.5238C-0.579196 6.84572 3.26305 1.24359 9.24181 0.181273C9.56455 0.123959 9.88596 0.0613129 10.2074 0H12.1985C12.3439 0.0386538 12.4879 0.095968 12.636 0.111963C18.8614 0.787737 23.4279 7.04299 22.2089 13.1929C21.8862 14.8191 21.2527 16.2986 20.2711 17.7701C22.5063 19.968 24.7362 22.142 26.9394 24.3426C27.3488 24.7517 27.6475 25.2729 27.9983 25.7421V26.4059L27.9996 26.4072ZM11.245 19.9933C16.0661 19.968 20.023 15.988 19.9964 11.1883C19.9697 6.34055 15.9807 2.39787 11.1303 2.42586C6.33578 2.45385 2.39218 6.45252 2.41085 11.2682C2.42952 16.0653 6.43314 20.0173 11.245 19.992V19.9933Z" fill="#000045"/>
</svg>
