<svg width="18" height="21" viewBox="0 0 18 21" fill="none" xmlns="http://www.w3.org/2000/svg">
<path fill-rule="evenodd" clip-rule="evenodd" d="M6.42534 1.70074C7.11191 1.11936 8.10756 0.788086 9.16703 0.788086C10.2265 0.788086 11.2222 1.11936 11.9087 1.70074H12.8177C13.8258 1.70074 14.643 2.51796 14.643 3.52606H15.5556C16.5637 3.52606 17.3809 4.34328 17.3809 5.35137V19.0412C17.3809 20.0493 16.5637 20.8665 15.5556 20.8665H2.77844C1.77035 20.8665 0.953125 20.0493 0.953125 19.0412V5.35137C0.953125 4.34328 1.77035 3.52606 2.77844 3.52606H3.69109C3.69109 2.51796 4.50832 1.70074 5.51641 1.70074H6.42534ZM12.8177 6.26403C13.4933 6.26403 14.0832 5.89696 14.3988 5.35137H15.5556V19.0412H2.77844V5.35137H3.93529C4.25089 5.89696 4.84078 6.26403 5.51641 6.26403H12.8177ZM5.51641 14.4779V12.6526H10.9923V14.4779H5.51641ZM5.51641 9.002V10.8273H12.8177V9.002H5.51641ZM7.21178 3.52605L7.48469 3.21153C7.78454 2.86596 8.42725 2.61339 9.16703 2.61339C9.90682 2.61339 10.5495 2.86596 10.8494 3.21153L11.1223 3.52605H12.8177V4.4387H5.51641V3.52605H6.79536H7.21178Z" fill="#929292"/>
</svg>
