<svg width="24" height="23" viewBox="0 0 24 23" fill="none" xmlns="http://www.w3.org/2000/svg">
<path d="M10.0209 0.377136C9.76009 0.428293 9.50213 0.488495 9.24697 0.557743C8.93068 0.643835 8.62093 0.7449 8.31119 0.860937C6.88447 1.38294 5.57903 2.19008 4.47448 3.23315C3.36243 4.28282 2.47649 5.54856 1.87097 6.95276C1.26546 8.35697 0.953125 9.87006 0.953125 11.3993C0.953125 12.9285 1.26546 14.4415 1.87097 15.8458C2.47649 17.25 3.36243 18.5157 4.47448 19.5654C6.01866 21.0268 7.94641 22.0192 10.033 22.427C10.7426 22.5617 11.4631 22.63 12.1853 22.631C12.5428 22.631 12.9031 22.6142 13.2634 22.5795C13.6236 22.5449 13.9877 22.4944 14.3498 22.4261C14.6106 22.3749 14.8685 22.3147 15.1237 22.2455C16.9093 21.7611 18.547 20.8419 19.8906 19.5701C21.0026 18.5204 21.8886 17.2546 22.4941 15.8504C23.0996 14.4462 23.4119 12.9331 23.4119 11.4039C23.4119 9.87474 23.0996 8.36165 22.4941 6.95744C21.8886 5.55323 21.0026 4.2875 19.8906 3.23783C18.3481 1.77868 16.4232 0.787322 14.3395 0.379008C12.9128 0.107368 11.4478 0.106733 10.0209 0.377136ZM16.6462 3.18449C16.8951 3.32018 17.1366 3.46522 17.3724 3.62711C17.4725 3.69355 17.5754 3.75625 17.6728 3.82737C17.7139 3.85732 17.7504 3.89381 17.7907 3.92095C17.4523 4.1727 17.0975 4.40154 16.7286 4.60594C16.5388 4.02796 16.3202 3.45985 16.0735 2.90375C16.14 2.9337 16.2092 2.95803 16.2756 2.98984C16.401 3.05535 16.5236 3.11898 16.6462 3.18542V3.18449ZM21.4964 10.4658H17.7701C17.7167 9.11615 17.5378 7.77438 17.2358 6.45786C17.9296 6.10875 18.5851 5.68818 19.1915 5.20297C20.5026 6.66582 21.3104 8.51028 21.4964 10.4658ZM19.1915 17.6002C18.5853 17.1146 17.9298 16.694 17.2358 16.3453C17.5376 15.0288 17.7165 13.687 17.7701 12.3374H21.4964C21.3104 14.2929 20.5026 16.1374 19.1915 17.6002ZM17.6746 18.974C17.5736 19.047 17.4688 19.1115 17.3658 19.1798C17.1325 19.3358 16.8936 19.4812 16.649 19.6159C16.5242 19.6833 16.3995 19.7479 16.2747 19.8096C16.2092 19.8414 16.14 19.8648 16.0735 19.8957C16.3168 19.3473 16.5352 18.7799 16.7286 18.1935C17.0981 18.3968 17.453 18.6257 17.7907 18.8785C17.7504 18.9085 17.7149 18.944 17.6746 18.974ZM8.09409 19.8087C7.96963 19.7479 7.84704 19.6842 7.72445 19.6215C7.47553 19.4858 7.2341 19.3408 6.99829 19.1789C6.89816 19.1125 6.79522 19.0498 6.6979 18.9786C6.65672 18.9487 6.62023 18.9122 6.57999 18.8851C6.91837 18.6333 7.27319 18.4045 7.6421 18.2001C7.83187 18.7781 8.05049 19.3462 8.29715 19.9023C8.22977 19.8648 8.16146 19.8405 8.09409 19.8087ZM2.87429 12.3374H6.60058C6.65399 13.6871 6.83287 15.0288 7.13491 16.3453C6.44109 16.6945 5.78561 17.115 5.17912 17.6002C3.86809 16.1374 3.06031 14.2929 2.87429 12.3374ZM5.17912 5.20297C5.78532 5.68859 6.44084 6.10919 7.13491 6.45786C6.83304 7.77441 6.65416 9.11616 6.60058 10.4658H2.87429C3.06025 8.51026 3.86803 6.66578 5.17912 5.20297ZM6.69603 3.82924C6.79709 3.75625 6.9019 3.69168 7.00484 3.62337C7.23816 3.46678 7.47709 3.32142 7.72164 3.18729C7.84642 3.11992 7.97119 3.05535 8.09596 2.99359C8.16146 2.96177 8.23071 2.93838 8.29715 2.9075C8.05385 3.45586 7.8355 4.02326 7.6421 4.60968C7.27253 4.40639 6.91763 4.1775 6.57999 3.92469C6.62023 3.89475 6.65579 3.85919 6.69603 3.82924ZM8.8895 15.6342C8.65929 14.5487 8.51969 13.446 8.47214 12.3374H11.2495V15.1943C10.4495 15.257 9.6584 15.4044 8.8895 15.6342ZM11.2495 2.09804V5.7373C10.6109 5.67413 9.98042 5.5462 9.36769 5.3555C9.71519 4.24105 10.186 3.16887 10.7714 2.15887C10.8734 2.1439 10.9754 2.12705 11.0783 2.11582L11.2495 2.09804ZM8.8895 7.17092C9.6581 7.40239 10.4493 7.55078 11.2495 7.61355V10.4658H8.47214C8.51933 9.35782 8.65894 8.25569 8.8895 7.17092ZM13.1211 17.0659C13.7597 17.1291 14.3902 17.257 15.003 17.4477C14.6555 18.5621 14.1847 19.6343 13.5993 20.6443C13.4992 20.6593 13.399 20.6752 13.2989 20.6864L13.1211 20.7052V17.0659ZM15.4812 15.6342C14.7123 15.4042 13.9212 15.2568 13.1211 15.1943V12.3374H15.8985C15.8513 13.446 15.7117 14.5487 15.4812 15.6342ZM13.1211 10.4658V7.61355C13.9214 7.55087 14.7127 7.40216 15.4812 7.16999C15.7118 8.25505 15.8514 9.3575 15.8985 10.4658H13.1211ZM13.1211 5.7373V2.11208C13.225 2.12237 13.3279 2.12144 13.4318 2.13547C13.487 2.14202 13.5432 2.15045 13.5993 2.15887C14.1846 3.16857 14.6554 4.24044 15.003 5.35457C14.3903 5.54584 13.7598 5.67408 13.1211 5.7373ZM11.2495 17.0659V20.7052L11.0708 20.6864C10.9707 20.6752 10.8715 20.6593 10.7714 20.6443C10.186 19.6346 9.71524 18.5628 9.36769 17.4486C9.98032 17.2574 10.6109 17.1291 11.2495 17.0659Z" fill="#9C9C9C"/>
</svg>
