<svg width="21" height="21" viewBox="0 0 21 21" fill="none" xmlns="http://www.w3.org/2000/svg">
<path fill-rule="evenodd" clip-rule="evenodd" d="M10.7774 20.4367C5.35162 20.4367 0.953125 16.0382 0.953125 10.6124C0.953125 5.18658 5.35162 0.788086 10.7774 0.788086C16.2033 0.788086 20.6018 5.18658 20.6018 10.6124C20.6018 16.0382 16.2033 20.4367 10.7774 20.4367ZM17.3861 15.1893C18.2874 13.8905 18.8155 12.3131 18.8155 10.6124C18.8155 6.17312 15.2168 2.57435 10.7774 2.57435C6.33814 2.57435 2.73937 6.17312 2.73937 10.6124C2.73937 12.3131 3.26754 13.8905 4.16881 15.1894C5.17397 13.8617 7.53596 13.2918 10.7775 13.2918C14.0189 13.2918 16.3809 13.8617 17.3861 15.1893ZM16.1046 16.6318C15.8432 15.6919 13.9653 15.078 10.7775 15.078C7.58956 15.078 5.71167 15.6919 5.45028 16.6319C6.86853 17.8879 8.73394 18.6505 10.7774 18.6505C12.821 18.6505 14.6864 17.8879 16.1046 16.6318ZM10.7774 5.25371C8.61529 5.25371 7.20497 6.82181 7.20497 8.82619C7.20497 11.8872 8.77763 13.2918 10.7774 13.2918C12.7585 13.2918 14.3499 11.9339 14.3499 9.00481C14.3499 6.96991 12.9336 5.25371 10.7774 5.25371ZM8.99121 8.82619C8.99121 10.8529 9.72197 11.5055 10.7774 11.5055C11.8293 11.5055 12.5637 10.8789 12.5637 9.00481C12.5637 7.88878 11.8632 7.03995 10.7774 7.03995C9.64652 7.03995 8.99121 7.76858 8.99121 8.82619Z" fill="white"/>
</svg>
