<svg width="14" height="14" viewBox="0 0 14 14" fill="none" xmlns="http://www.w3.org/2000/svg">
<path d="M2.33333 0C1.04467 0 0 1.04467 0 2.33333V4.2C0 9.61239 4.38761 14 9.8 14H11.6667C12.9553 14 14 12.9553 14 11.6667V10.3768C14 9.84655 13.7004 9.36178 13.2261 9.12463L10.9712 7.9972C10.2092 7.61619 9.28639 7.99843 9.01698 8.80668L8.73906 9.64042C8.63346 9.95721 8.3085 10.1458 7.98107 10.0803C5.93159 9.67041 4.32959 8.06841 3.91969 6.01893C3.85421 5.6915 4.04279 5.36654 4.35957 5.26094L5.3943 4.91603C6.08831 4.6847 6.4872 3.95804 6.30978 3.24833L5.76281 1.06045C5.607 0.437216 5.04702 0 4.40461 0H2.33333Z" fill="#1D1929"/>
</svg>
