<svg xmlns="http://www.w3.org/2000/svg" width="47" height="48" viewBox="0 0 47 48" fill="none">
   <path d="M45.1519 32.2549C45.1519 39.588 39.2076 45.5324 31.8744 45.5324C24.5413 45.5324 18.5969 39.588 18.5969 32.2549C18.5969 24.9217 24.5413 18.9774 31.8744 18.9774C39.2076 18.9774 45.1519 24.9217 45.1519 32.2549Z" stroke="white" stroke-width="3.31938" stroke-miterlimit="10" stroke-linecap="round" stroke-linejoin="round"></path>
   <path d="M27.9577 19.5749C28.3559 18.3134 28.5552 17.019 28.5552 15.658C28.5552 8.32217 22.6136 2.38049 15.2777 2.38049C7.94193 2.38049 2.00024 8.32217 2.00024 15.658C2.00024 22.9938 7.94193 28.9355 15.2777 28.9355C16.6388 28.9355 17.9332 28.7362 19.1946 28.3379" stroke="white" stroke-width="3.31938" stroke-miterlimit="10" stroke-linecap="round" stroke-linejoin="round"></path>
   <path d="M28.555 38.8937H33.534C35.3663 38.8937 36.8534 37.4066 36.8534 35.5743C36.8534 33.7419 35.3663 32.2549 33.534 32.2549H30.2146C28.3823 32.2549 26.8953 30.7679 26.8953 28.9355C26.8953 27.1032 28.3823 25.6161 30.2146 25.6161H35.1937" stroke="white" stroke-width="3.31938" stroke-miterlimit="10" stroke-linecap="round" stroke-linejoin="round"></path>
   <path d="M31.8743 22.2967V25.6161" stroke="white" stroke-width="3.31938" stroke-miterlimit="10" stroke-linecap="round" stroke-linejoin="round"></path>
   <path d="M31.8743 38.8936V42.213" stroke="white" stroke-width="3.31938" stroke-miterlimit="10" stroke-linecap="round" stroke-linejoin="round"></path>
   <path d="M5.31934 15.658H15.2775" stroke="white" stroke-width="3.31938" stroke-miterlimit="10" stroke-linecap="round" stroke-linejoin="round"></path>
   <path d="M2 37.2339L5.31938 32.2548L8.37645 36.8854" stroke="white" stroke-width="3.31938" stroke-miterlimit="10" stroke-linecap="round" stroke-linejoin="round"></path>
   <path d="M5.31934 32.2548V40.5533C5.31934 43.3017 7.54992 45.5323 10.2984 45.5323H15.2775" stroke="white" stroke-width="3.31938" stroke-miterlimit="10" stroke-linecap="round" stroke-linejoin="round"></path>
   <path d="M45.1518 10.679L41.8325 15.658L38.7754 11.0275" stroke="white" stroke-width="3.31938" stroke-miterlimit="10" stroke-linecap="round" stroke-linejoin="round"></path>
   <path d="M41.8324 15.6579V7.3595C41.8324 4.61102 39.6018 2.38043 36.8533 2.38043H31.8743" stroke="white" stroke-width="3.31938" stroke-miterlimit="10" stroke-linecap="round" stroke-linejoin="round"></path>
   <path d="M15.2774 22.2967C11.6095 22.2967 8.63867 19.326 8.63867 15.658C8.63867 11.99 11.6094 9.01923 15.2774 9.01923" stroke="white" stroke-width="3.31938" stroke-miterlimit="10" stroke-linecap="round" stroke-linejoin="round"></path>
</svg>