<svg xmlns="http://www.w3.org/2000/svg" width="54" height="54" viewBox="0 0 54 54" fill="none">
   <path d="M49.7906 3.72074H33.1938V2.06105C33.1938 1.62094 33.0189 1.19861 32.7077 0.887419C32.3965 0.576232 31.9742 0.401367 31.5341 0.401367H21.5759C21.1358 0.401367 20.7135 0.576232 20.4023 0.887419C20.0911 1.19861 19.9163 1.62094 19.9163 2.06105V3.72074H3.31938C2.43915 3.72074 1.59482 4.07046 0.972103 4.69285C0.34972 5.3156 0 6.15991 0 7.04012V40.2339C0 41.1141 0.34972 41.9584 0.972103 42.5811C1.59486 43.2035 2.43917 43.5532 3.31938 43.5532H14.2562L7.11959 50.6732L9.45984 53.0135L18.9368 43.5532H24.8949V53.5114H28.2143V43.5532H34.1725L43.6494 53.0302L45.9897 50.6899L38.853 43.5532H49.7899C50.6701 43.5532 51.5144 43.2035 52.1371 42.5811C52.7595 41.9584 53.1092 41.1141 53.1092 40.2339V7.04012C53.1092 6.1599 52.7595 5.31556 52.1371 4.69285C51.5144 4.07046 50.6701 3.72074 49.7899 3.72074H49.7906ZM49.7906 40.2339H3.31938V7.04012H49.7906V40.2339Z" fill="white"></path>
   <path d="M28.2147 15.3386V12.0192H24.8953V15.3386H23.2357C21.4567 15.3386 19.8129 16.2878 18.9238 17.8281C18.0343 19.3685 18.0343 21.2668 18.9238 22.8072C19.8129 24.3476 21.4567 25.2967 23.2357 25.2967H29.8744C30.4675 25.2967 31.0154 25.6131 31.3118 26.1266C31.6082 26.64 31.6082 27.2728 31.3118 27.7863C31.0154 28.2997 30.4675 28.6161 29.8744 28.6161H23.2357C22.7955 28.6161 22.3732 28.4412 22.062 28.1301C21.7508 27.8189 21.576 27.3965 21.576 26.9564H18.2566C18.2566 28.2771 18.7812 29.5433 19.7147 30.4773C20.6487 31.4109 21.9149 31.9355 23.2357 31.9355H24.8953V35.2549H28.2147V31.9355H29.8744C31.6534 31.9355 33.2972 30.9863 34.1863 29.4459C35.0758 27.9056 35.0758 26.0073 34.1863 24.4669C33.2972 22.9265 31.6534 21.9774 29.8744 21.9774H23.2357C22.6425 21.9774 22.0946 21.661 21.7983 21.1475C21.5019 20.634 21.5019 20.0013 21.7983 19.4878C22.0946 18.9744 22.6426 18.658 23.2357 18.658H29.8744C30.3145 18.658 30.7369 18.8328 31.048 19.144C31.3592 19.4552 31.5341 19.8776 31.5341 20.3177H34.8535C34.8535 18.9969 34.3289 17.7307 33.3953 16.7968C32.4614 15.8632 31.1951 15.3386 29.8744 15.3386H28.2147Z" fill="white"></path>
</svg>