<svg xmlns="http://www.w3.org/2000/svg" width="43" height="50" viewBox="0 0 43 50" fill="none">
   <path d="M36.5036 0.0172603H5.76372C2.58599 0.0172603 0 2.60325 0 5.78098V36.1805C0 38.2729 1.13562 40.2036 3.0585 41.2662L18.3362 48.69C19.2239 49.1836 20.1978 49.4259 21.1585 49.4259C22.0959 49.4259 23.0201 49.1951 23.8405 48.738L39.2104 41.2661L39.3026 41.2181C41.1316 40.2039 42.2673 38.2728 42.2673 36.1787V5.78032C42.2673 2.60259 39.6813 0.0166016 36.5035 0.0166016L36.5036 0.0172603ZM38.4248 36.1805C38.4248 36.8624 38.0616 37.4945 37.4736 37.8385L22.0653 45.3313C21.4812 45.6559 20.7839 45.6559 20.1054 45.2833L4.82768 37.8595C4.21871 37.5216 3.84004 36.8779 3.84004 36.1801L3.8409 5.7806C3.8409 4.7222 4.70375 3.85936 5.76214 3.85936H36.5042C37.5626 3.85936 38.4254 4.7222 38.4254 5.7806L38.4248 36.1805ZM30.1768 15.9504C30.9281 16.7017 30.9281 17.9158 30.1768 18.6671L20.5706 28.2733C20.1957 28.6481 19.7043 28.8364 19.2124 28.8364C18.7205 28.8364 18.2286 28.6481 17.8542 28.2733L14.0118 24.4308C13.2604 23.6795 13.2604 22.4655 14.0118 21.7141C14.7631 20.9627 15.9771 20.9627 16.7285 21.7141L19.2128 24.1984L27.4609 15.9504C28.2122 15.199 29.4263 15.199 30.1776 15.9504H30.1768Z" fill="white"></path>
</svg>