<svg width="16" height="12" viewBox="0 0 16 12" fill="none" xmlns="http://www.w3.org/2000/svg">
<path d="M3.55556 3.33268H12.4444V8.66602H3.55556V3.33268ZM14.6667 5.99935C14.6667 6.73574 15.2636 7.33268 16 7.33268V9.99935C16 10.7357 15.4031 11.3327 14.6667 11.3327H1.33333C0.596944 11.3327 0 10.7357 0 9.99935V7.33268C0.736389 7.33268 1.33333 6.73574 1.33333 5.99935C1.33333 5.26296 0.736389 4.66602 0 4.66602V1.99935C0 1.26296 0.596944 0.666016 1.33333 0.666016H14.6667C15.4031 0.666016 16 1.26296 16 1.99935V4.66602C15.2636 4.66602 14.6667 5.26296 14.6667 5.99935ZM13.3333 3.11046C13.3333 2.74227 13.0349 2.44379 12.6667 2.44379H3.33333C2.96514 2.44379 2.66667 2.74227 2.66667 3.11046V8.88824C2.66667 9.25643 2.96514 9.5549 3.33333 9.5549H12.6667C13.0349 9.5549 13.3333 9.25643 13.3333 8.88824V3.11046Z" fill="#DDE2FF"/>
</svg>
