<svg width="28" height="28" viewBox="0 0 28 28" fill="none" xmlns="http://www.w3.org/2000/svg">
<path d="M28.0001 26.4072C27.9628 26.4872 27.9201 26.5645 27.8881 26.6458C27.3133 28.132 25.8689 28.4505 24.7273 27.3229C22.6362 25.2569 20.5583 23.1789 18.4792 21.101C18.2298 20.8517 18.0097 20.5731 17.9017 20.4505C16.4147 21.0357 15.109 21.7048 13.7234 22.0673C7.39919 23.7188 0.816291 19.0123 0.0721137 12.5238C-0.578708 6.84572 3.26354 1.24359 9.2423 0.181273C9.56504 0.123959 9.88645 0.0613129 10.2079 0H12.199C12.3444 0.0386538 12.4884 0.095968 12.6364 0.111963C18.8619 0.787737 23.4283 7.04299 22.2094 13.1929C21.8866 14.8191 21.2532 16.2986 20.2716 17.7701C22.5068 19.968 24.7367 22.142 26.9398 24.3426C27.3493 24.7517 27.648 25.2729 27.9988 25.7421V26.4059L28.0001 26.4072ZM11.2454 19.9933C16.0666 19.968 20.0235 15.988 19.9969 11.1883C19.9702 6.34055 15.9812 2.39787 11.1307 2.42586C6.33627 2.45385 2.39267 6.45252 2.41134 11.2682C2.43001 16.0653 6.43363 20.0173 11.2454 19.992V19.9933Z" fill="#000045"/>
</svg>
